ISO-10303-21;
HEADER;
FILE_DESCRIPTION (( 'STEP AP203' ),
    '1' );
FILE_NAME ('Type C Male Cover.STEP',
    '2024-07-24T12:34:54',
    ( '' ),
    ( '' ),
    'SwSTEP 2.0',
    'SolidWorks 2022',
    '' );
FILE_SCHEMA (( 'CONFIG_CONTROL_DESIGN' ));
ENDSEC;

DATA;
#1 = ORIENTED_EDGE ( 'NONE', *, *, #98, .T. ) ;
#2 = DIRECTION ( 'NONE',  ( -0.000000000000000000, -1.000000000000000000, -0.000000000000000000 ) ) ;
#3 = CARTESIAN_POINT ( 'NONE',  ( 2.424999999999999378, 0.8000000000000003775, 2.054771785595984643E-16 ) ) ;
#4 = CARTESIAN_POINT ( 'NONE',  ( 0.000000000000000000, 14.90000000000000036, -2.250000000000000000 ) ) ;
#5 = ORIENTED_EDGE ( 'NONE', *, *, #313, .T. ) ;
#6 = DIRECTION ( 'NONE',  ( 0.000000000000000000, 0.000000000000000000, 1.000000000000000000 ) ) ;
#7 = LOCAL_TIME ( 20, 34, 54.00000000000000000, #312 ) ;
#8 = EDGE_CURVE ( 'NONE', #295, #429, #25, .T. ) ;
#9 =( NAMED_UNIT ( * ) SI_UNIT ( $, .STERADIAN. ) SOLID_ANGLE_UNIT ( ) );
#10 = ORIENTED_EDGE ( 'NONE', *, *, #12, .T. ) ;
#11 = ORIENTED_EDGE ( 'NONE', *, *, #453, .F. ) ;
#12 = EDGE_CURVE ( 'NONE', #241, #79, #326, .T. ) ;
#13 = PERSON_AND_ORGANIZATION ( #27, #70 ) ;
#14 = DIRECTION ( 'NONE',  ( 0.000000000000000000, 1.000000000000000000, 0.000000000000000000 ) ) ;
#15 = VERTEX_POINT ( 'NONE', #394 ) ;
#16 = AXIS2_PLACEMENT_3D ( 'NONE', #237, #385, #243 ) ;
#17 = APPROVAL_DATE_TIME ( #23, #318 ) ;
#18 = DIRECTION ( 'NONE',  ( 1.000000000000000000, 0.000000000000000000, 0.000000000000000000 ) ) ;
#19 = ORIENTED_EDGE ( 'NONE', *, *, #302, .T. ) ;
#20 = CALENDAR_DATE ( 2024, 24, 7 ) ;
#21 = CARTESIAN_POINT ( 'NONE',  ( -2.474999999999999645, 0.000000000000000000, 2.850000000000000533 ) ) ;
#22 = ORIENTED_EDGE ( 'NONE', *, *, #30, .T. ) ;
#23 = DATE_AND_TIME ( #430, #52 ) ;
#24 = CARTESIAN_POINT ( 'NONE',  ( -2.474999999999999645, 14.90000000000000036, -2.850000000000000533 ) ) ;
#25 = LINE ( 'NONE', #169, #457 ) ;
#26 = VECTOR ( 'NONE', #206, 1000.000000000000000 ) ;
#27 = PERSON ( 'UNSPECIFIED', 'UNSPECIFIED', 'UNSPECIFIED', ('UNSPECIFIED'), ('UNSPECIFIED'), ('UNSPECIFIED') ) ;
#28 = CARTESIAN_POINT ( 'NONE',  ( 2.424999999999999378, 0.8000000000000003775, 2.249999999999999556 ) ) ;
#29 = DIRECTION ( 'NONE',  ( -0.000000000000000000, 0.000000000000000000, 1.000000000000000000 ) ) ;
#30 = EDGE_CURVE ( 'NONE', #79, #241, #305, .T. ) ;
#31 = VECTOR ( 'NONE', #257, 1000.000000000000000 ) ;
#32 = CARTESIAN_POINT ( 'NONE',  ( -2.474999999999999645, 14.90000000000000036, 2.850000000000000533 ) ) ;
#33 = VERTEX_POINT ( 'NONE', #59 ) ;
#34 = CARTESIAN_POINT ( 'NONE',  ( 2.474999999999999645, 14.90000000000000036, 2.850000000000000533 ) ) ;
#35 = ORIENTED_EDGE ( 'NONE', *, *, #184, .T. ) ;
#36 = DIRECTION ( 'NONE',  ( 0.000000000000000000, 0.000000000000000000, 1.000000000000000000 ) ) ;
#37 = EDGE_CURVE ( 'NONE', #339, #33, #174, .T. ) ;
#38 = CARTESIAN_POINT ( 'NONE',  ( -2.424999999999999378, 14.90000000000000036, 2.054771785595985136E-16 ) ) ;
#39 = DIRECTION ( 'NONE',  ( 0.000000000000000000, 1.000000000000000000, 0.000000000000000000 ) ) ;
#40 = CARTESIAN_POINT ( 'NONE',  ( -2.424999999999999378, 0.8000000000000003775, 2.054771785595985136E-16 ) ) ;
#41 = VERTEX_POINT ( 'NONE', #106 ) ;
#42 = CARTESIAN_POINT ( 'NONE',  ( 2.474999999999999645, 0.000000000000000000, 0.000000000000000000 ) ) ;
#43 = EDGE_CURVE ( 'NONE', #267, #339, #179, .T. ) ;
#44 = DIRECTION ( 'NONE',  ( 0.000000000000000000, 0.000000000000000000, 1.000000000000000000 ) ) ;
#45 = ORIENTED_EDGE ( 'NONE', *, *, #105, .T. ) ;
#46 = ORIENTED_EDGE ( 'NONE', *, *, #12, .F. ) ;
#47 = EDGE_LOOP ( 'NONE', ( #160, #350, #181, #56 ) ) ;
#48 = APPROVAL_DATE_TIME ( #469, #340 ) ;
#49 = AXIS2_PLACEMENT_3D ( 'NONE', #42, #409, #265 ) ;
#50 = DIRECTION ( 'NONE',  ( 0.000000000000000000, 1.000000000000000000, 0.000000000000000000 ) ) ;
#51 = EDGE_LOOP ( 'NONE', ( #5, #264, #22, #124 ) ) ;
#52 = LOCAL_TIME ( 20, 34, 54.00000000000000000, #348 ) ;
#53 = AXIS2_PLACEMENT_3D ( 'NONE', #92, #29, #18 ) ;
#54 = MECHANICAL_CONTEXT ( 'NONE', #384, 'mechanical' ) ;
#55 = CARTESIAN_POINT ( 'NONE',  ( -2.424999999999999378, 14.90000000000000036, 2.249999999999999556 ) ) ;
#56 = ORIENTED_EDGE ( 'NONE', *, *, #43, .T. ) ;
#57 = APPROVAL_ROLE ( '' ) ;
#58 = CARTESIAN_POINT ( 'NONE',  ( 2.424999999999999378, 0.8000000000000003775, -2.249999999999999556 ) ) ;
#59 = CARTESIAN_POINT ( 'NONE',  ( 0.000000000000000000, 0.8000000000000003775, -2.249999999999999556 ) ) ;
#60 = ADVANCED_FACE ( 'NONE', ( #374 ), #460, .F. ) ;
#61 = SECURITY_CLASSIFICATION_LEVEL ( 'unclassified' ) ;
#62 = CARTESIAN_POINT ( 'NONE',  ( -2.474999999999999645, 14.90000000000000036, -2.850000000000000533 ) ) ;
#63 = CLOSED_SHELL ( 'NONE', ( #335, #391, #126, #434, #164, #231, #289, #195, #82, #404, #60, #204, #364, #423 ) ) ;
#64 = CIRCLE ( 'NONE', #260, 2.850000000000000533 ) ;
#65 = PERSON_AND_ORGANIZATION ( #27, #70 ) ;
#66 = DIRECTION ( 'NONE',  ( -1.000000000000000000, -0.000000000000000000, -0.000000000000000000 ) ) ;
#67 = CC_DESIGN_DATE_AND_TIME_ASSIGNMENT ( #211, #463, ( #102 ) ) ;
#68 = DIRECTION ( 'NONE',  ( -1.000000000000000000, 0.000000000000000000, -0.000000000000000000 ) ) ;
#69 = DESIGN_CONTEXT ( 'detailed design', #436, 'design' ) ;
#70 = ORGANIZATION ( 'UNSPECIFIED', 'UNSPECIFIED', '' ) ;
#71 = AXIS2_PLACEMENT_3D ( 'NONE', #3, #14, #229 ) ;
#72 = DIRECTION ( 'NONE',  ( -0.000000000000000000, 1.000000000000000000, -0.000000000000000000 ) ) ;
#73 = ORIENTED_EDGE ( 'NONE', *, *, #30, .F. ) ;
#74 = DIRECTION ( 'NONE',  ( -0.000000000000000000, -1.000000000000000000, -0.000000000000000000 ) ) ;
#75 = EDGE_CURVE ( 'NONE', #339, #330, #83, .T. ) ;
#76 = CARTESIAN_POINT ( 'NONE',  ( 2.424999999999999378, 14.90000000000000036, 2.249999999999999556 ) ) ;
#77 = AXIS2_PLACEMENT_3D ( 'NONE', #431, #50, #240 ) ;
#78 = CIRCLE ( 'NONE', #321, 2.249999999999999556 ) ;
#79 = VERTEX_POINT ( 'NONE', #329 ) ;
#80 = LINE ( 'NONE', #186, #411 ) ;
#81 = DIRECTION ( 'NONE',  ( -1.000000000000000000, -0.000000000000000000, -0.000000000000000000 ) ) ;
#82 = ADVANCED_FACE ( 'NONE', ( #274 ), #441, .F. ) ;
#83 = LINE ( 'NONE', #149, #262 ) ;
#84 = ORIENTED_EDGE ( 'NONE', *, *, #396, .F. ) ;
#85 = AXIS2_PLACEMENT_3D ( 'NONE', #381, #225, #341 ) ;
#86 = ORIENTED_EDGE ( 'NONE', *, *, #438, .T. ) ;
#87 = CC_DESIGN_PERSON_AND_ORGANIZATION_ASSIGNMENT ( #358, #95, ( #151 ) ) ;
#88 = ORIENTED_EDGE ( 'NONE', *, *, #259, .T. ) ;
#89 = APPROVAL_ROLE ( '' ) ;
#90 = PLANE ( 'NONE',  #199 ) ;
#91 = ORIENTED_EDGE ( 'NONE', *, *, #75, .T. ) ;
#92 = CARTESIAN_POINT ( 'NONE',  ( -2.424999999999999378, 0.8000000000000003775, 2.249999999999999556 ) ) ;
#93 = ORIENTED_EDGE ( 'NONE', *, *, #219, .F. ) ;
#94 = AXIS2_PLACEMENT_3D ( 'NONE', #40, #221, #36 ) ;
#95 = PERSON_AND_ORGANIZATION_ROLE ( 'creator' ) ;
#96 = LINE ( 'NONE', #212, #269 ) ;
#97 = DIRECTION ( 'NONE',  ( 0.000000000000000000, 0.000000000000000000, -1.000000000000000000 ) ) ;
#98 = EDGE_CURVE ( 'NONE', #330, #465, #301, .T. ) ;
#99 = COORDINATED_UNIVERSAL_TIME_OFFSET ( 8, 0, .AHEAD. ) ;
#100 = DIRECTION ( 'NONE',  ( 0.000000000000000000, 1.000000000000000000, 0.000000000000000000 ) ) ;
#101 = CARTESIAN_POINT ( 'NONE',  ( 0.000000000000000000, 0.8000000000000003775, 2.249999999999999556 ) ) ;
#102 = PRODUCT_DEFINITION ( 'UNKNOWN', '', #151, #69 ) ;
#103 = FACE_OUTER_BOUND ( 'NONE', #108, .T. ) ;
#104 = ORIENTED_EDGE ( 'NONE', *, *, #177, .T. ) ;
#105 = EDGE_CURVE ( 'NONE', #309, #15, #369, .T. ) ;
#106 = CARTESIAN_POINT ( 'NONE',  ( -2.474999999999999645, 14.90000000000000036, 2.850000000000000533 ) ) ;
#107 = FACE_OUTER_BOUND ( 'NONE', #376, .T. ) ;
#108 = EDGE_LOOP ( 'NONE', ( #93, #142, #178, #10 ) ) ;
#109 = DIRECTION ( 'NONE',  ( 0.000000000000000000, 0.000000000000000000, 1.000000000000000000 ) ) ;
#110 = VECTOR ( 'NONE', #310, 1000.000000000000000 ) ;
#111 = EDGE_CURVE ( 'NONE', #152, #15, #363, .T. ) ;
#112 = VECTOR ( 'NONE', #81, 1000.000000000000000 ) ;
#113 = DIRECTION ( 'NONE',  ( 0.000000000000000000, 0.000000000000000000, 1.000000000000000000 ) ) ;
#114 = PRODUCT_DEFINITION_SHAPE ( 'NONE', 'NONE',  #102 ) ;
#115 = DIRECTION ( 'NONE',  ( 0.000000000000000000, 0.000000000000000000, -1.000000000000000000 ) ) ;
#116 = ORIENTED_EDGE ( 'NONE', *, *, #184, .F. ) ;
#117 = DIRECTION ( 'NONE',  ( 0.000000000000000000, 0.000000000000000000, 1.000000000000000000 ) ) ;
#118 = EDGE_LOOP ( 'NONE', ( #268, #196, #362, #304 ) ) ;
#119 = ORIENTED_EDGE ( 'NONE', *, *, #259, .F. ) ;
#120 = DATE_AND_TIME ( #20, #127 ) ;
#121 = DIRECTION ( 'NONE',  ( -0.000000000000000000, 1.000000000000000000, -0.000000000000000000 ) ) ;
#122 = VERTEX_POINT ( 'NONE', #34 ) ;
#123 = DIRECTION ( 'NONE',  ( 0.000000000000000000, 0.000000000000000000, 1.000000000000000000 ) ) ;
#124 = ORIENTED_EDGE ( 'NONE', *, *, #443, .F. ) ;
#125 = CALENDAR_DATE ( 2024, 24, 7 ) ;
#126 = ADVANCED_FACE ( 'NONE', ( #324 ), #256, .T. ) ;
#127 = LOCAL_TIME ( 20, 34, 54.00000000000000000, #99 ) ;
#128 = DIRECTION ( 'NONE',  ( 0.000000000000000000, 1.000000000000000000, 0.000000000000000000 ) ) ;
#129 = VERTEX_POINT ( 'NONE', #146 ) ;
#130 = CC_DESIGN_APPROVAL ( #340, ( #151 ) ) ;
#131 = VECTOR ( 'NONE', #261, 1000.000000000000000 ) ;
#132 = APPROVAL_DATE_TIME ( #120, #272 ) ;
#133 = LINE ( 'NONE', #58, #418 ) ;
#134 = CARTESIAN_POINT ( 'NONE',  ( 0.000000000000000000, 0.000000000000000000, 0.000000000000000000 ) ) ;
#135 = PERSON_AND_ORGANIZATION_ROLE ( 'design_supplier' ) ;
#136 = PLANE ( 'NONE',  #53 ) ;
#137 = DIRECTION ( 'NONE',  ( -0.000000000000000000, 1.000000000000000000, -0.000000000000000000 ) ) ;
#138 = AXIS2_PLACEMENT_3D ( 'NONE', #464, #128, #123 ) ;
#139 = AXIS2_PLACEMENT_3D ( 'NONE', #210, #372, #6 ) ;
#140 = VECTOR ( 'NONE', #150, 1000.000000000000000 ) ;
#141 = DIRECTION ( 'NONE',  ( -0.000000000000000000, -1.000000000000000000, -0.000000000000000000 ) ) ;
#142 = ORIENTED_EDGE ( 'NONE', *, *, #37, .T. ) ;
#143 = LOCAL_TIME ( 20, 34, 54.00000000000000000, #351 ) ;
#144 = LINE ( 'NONE', #293, #346 ) ;
#145 = AXIS2_PLACEMENT_3D ( 'NONE', #308, #100, #395 ) ;
#146 = CARTESIAN_POINT ( 'NONE',  ( -2.474999999999999645, 0.000000000000000000, -2.850000000000000533 ) ) ;
#147 = CC_DESIGN_PERSON_AND_ORGANIZATION_ASSIGNMENT ( #427, #208, ( #102 ) ) ;
#148 = ORIENTED_EDGE ( 'NONE', *, *, #417, .T. ) ;
#149 = CARTESIAN_POINT ( 'NONE',  ( -2.424999999999999378, 0.8000000000000003775, 2.249999999999999556 ) ) ;
#150 = DIRECTION ( 'NONE',  ( -1.000000000000000000, -0.000000000000000000, -0.000000000000000000 ) ) ;
#151 = PRODUCT_DEFINITION_FORMATION_WITH_SPECIFIED_SOURCE ( 'ANY', '', #455, .NOT_KNOWN. ) ;
#152 = VERTEX_POINT ( 'NONE', #182 ) ;
#153 = ORIENTED_EDGE ( 'NONE', *, *, #8, .F. ) ;
#154 = DIRECTION ( 'NONE',  ( 0.000000000000000000, 0.000000000000000000, -1.000000000000000000 ) ) ;
#155 = EDGE_CURVE ( 'NONE', #311, #41, #64, .T. ) ;
#156 = EDGE_LOOP ( 'NONE', ( #461, #119, #116, #153 ) ) ;
#157 = DATE_TIME_ROLE ( 'classification_date' ) ;
#158 = CARTESIAN_POINT ( 'NONE',  ( -2.424999999999999378, 0.8000000000000003775, -2.249999999999999556 ) ) ;
#159 = AXIS2_PLACEMENT_3D ( 'NONE', #306, #224, #331 ) ;
#160 = ORIENTED_EDGE ( 'NONE', *, *, #313, .F. ) ;
#161 = DIRECTION ( 'NONE',  ( 0.000000000000000000, 0.000000000000000000, 1.000000000000000000 ) ) ;
#162 = ORIENTED_EDGE ( 'NONE', *, *, #155, .F. ) ;
#163 = EDGE_CURVE ( 'NONE', #267, #353, #144, .T. ) ;
#164 = ADVANCED_FACE ( 'NONE', ( #107 ), #258, .T. ) ;
#165 = DATE_AND_TIME ( #285, #143 ) ;
#166 = LINE ( 'NONE', #55, #110 ) ;
#167 = EDGE_LOOP ( 'NONE', ( #188, #84, #291, #421 ) ) ;
#168 = FACE_OUTER_BOUND ( 'NONE', #307, .T. ) ;
#169 = CARTESIAN_POINT ( 'NONE',  ( -2.474999999999999645, 0.000000000000000000, 2.850000000000000533 ) ) ;
#170 = EDGE_CURVE ( 'NONE', #41, #295, #80, .T. ) ;
#171 = DIRECTION ( 'NONE',  ( -0.000000000000000000, 1.000000000000000000, -0.000000000000000000 ) ) ;
#172 = FACE_OUTER_BOUND ( 'NONE', #47, .T. ) ;
#173 = SECURITY_CLASSIFICATION ( '', '', #61 ) ;
#174 = CIRCLE ( 'NONE', #139, 2.250000000000000000 ) ;
#175 = CIRCLE ( 'NONE', #223, 2.249999999999999556 ) ;
#176 = FACE_OUTER_BOUND ( 'NONE', #333, .T. ) ;
#177 = EDGE_CURVE ( 'NONE', #15, #353, #175, .T. ) ;
#178 = ORIENTED_EDGE ( 'NONE', *, *, #443, .T. ) ;
#179 = LINE ( 'NONE', #189, #131 ) ;
#180 = DIRECTION ( 'NONE',  ( 0.000000000000000000, -0.000000000000000000, 1.000000000000000000 ) ) ;
#181 = ORIENTED_EDGE ( 'NONE', *, *, #453, .T. ) ;
#182 = CARTESIAN_POINT ( 'NONE',  ( 2.424999999999999378, 14.90000000000000036, -2.249999999999999556 ) ) ;
#183 = AXIS2_PLACEMENT_3D ( 'NONE', #407, #74, #300 ) ;
#184 = EDGE_CURVE ( 'NONE', #429, #468, #433, .T. ) ;
#185 = VERTEX_POINT ( 'NONE', #76 ) ;
#186 = CARTESIAN_POINT ( 'NONE',  ( -2.474999999999999645, 14.90000000000000036, 2.850000000000000533 ) ) ;
#187 = CARTESIAN_POINT ( 'NONE',  ( 2.474999999999999645, 0.000000000000000000, 2.850000000000000533 ) ) ;
#188 = ORIENTED_EDGE ( 'NONE', *, *, #8, .T. ) ;
#189 = CARTESIAN_POINT ( 'NONE',  ( -2.424999999999999378, 0.8000000000000003775, 2.249999999999999556 ) ) ;
#190 =( LENGTH_UNIT ( ) NAMED_UNIT ( * ) SI_UNIT ( .MILLI., .METRE. ) );
#191 = FACE_OUTER_BOUND ( 'NONE', #156, .T. ) ;
#192 = APPROVAL_PERSON_ORGANIZATION ( #13, #272, #89 ) ;
#193 = DIRECTION ( 'NONE',  ( 0.000000000000000000, 1.000000000000000000, 0.000000000000000000 ) ) ;
#194 = ORIENTED_EDGE ( 'NONE', *, *, #214, .F. ) ;
#195 = ADVANCED_FACE ( 'NONE', ( #415, #191 ), #338, .F. ) ;
#196 = ORIENTED_EDGE ( 'NONE', *, *, #111, .F. ) ;
#197 = CARTESIAN_POINT ( 'NONE',  ( 2.424999999999999378, 14.90000000000000036, 2.054771785595984643E-16 ) ) ;
#198 = ORIENTED_EDGE ( 'NONE', *, *, #43, .F. ) ;
#199 = AXIS2_PLACEMENT_3D ( 'NONE', #24, #161, #470 ) ;
#200 = PERSON_AND_ORGANIZATION ( #27, #70 ) ;
#201 = CARTESIAN_POINT ( 'NONE',  ( -2.424999999999999378, 0.8000000000000003775, -2.249999999999999556 ) ) ;
#202 = AXIS2_PLACEMENT_3D ( 'NONE', #294, #254, #180 ) ;
#203 = ORIENTED_EDGE ( 'NONE', *, *, #252, .F. ) ;
#204 = ADVANCED_FACE ( 'NONE', ( #209 ), #136, .F. ) ;
#205 = PERSON_AND_ORGANIZATION ( #27, #70 ) ;
#206 = DIRECTION ( 'NONE',  ( -0.000000000000000000, -1.000000000000000000, -0.000000000000000000 ) ) ;
#207 = ORIENTED_EDGE ( 'NONE', *, *, #302, .F. ) ;
#208 = PERSON_AND_ORGANIZATION_ROLE ( 'creator' ) ;
#209 = FACE_OUTER_BOUND ( 'NONE', #386, .T. ) ;
#210 = CARTESIAN_POINT ( 'NONE',  ( 0.000000000000000000, 0.8000000000000003775, 0.000000000000000000 ) ) ;
#211 = DATE_AND_TIME ( #125, #402 ) ;
#212 = CARTESIAN_POINT ( 'NONE',  ( 2.755455298081544285E-16, 14.90000000000000036, 2.250000000000000000 ) ) ;
#213 = VECTOR ( 'NONE', #263, 1000.000000000000000 ) ;
#214 = EDGE_CURVE ( 'NONE', #465, #152, #133, .T. ) ;
#215 = CARTESIAN_POINT ( 'NONE',  ( -2.474999999999999645, 14.90000000000000036, -2.850000000000000533 ) ) ;
#216 = LINE ( 'NONE', #251, #347 ) ;
#217 = CC_DESIGN_PERSON_AND_ORGANIZATION_ASSIGNMENT ( #200, #135, ( #151 ) ) ;
#218 = CC_DESIGN_APPROVAL ( #272, ( #102 ) ) ;
#219 = EDGE_CURVE ( 'NONE', #339, #79, #96, .T. ) ;
#220 = CARTESIAN_POINT ( 'NONE',  ( 2.474999999999999645, 14.90000000000000036, 2.850000000000000533 ) ) ;
#221 = DIRECTION ( 'NONE',  ( -0.000000000000000000, 1.000000000000000000, -0.000000000000000000 ) ) ;
#222 = DIRECTION ( 'NONE',  ( -0.000000000000000000, -1.000000000000000000, -0.000000000000000000 ) ) ;
#223 = AXIS2_PLACEMENT_3D ( 'NONE', #38, #450, #113 ) ;
#224 = DIRECTION ( 'NONE',  ( 0.000000000000000000, 1.000000000000000000, 0.000000000000000000 ) ) ;
#225 = DIRECTION ( 'NONE',  ( 0.000000000000000000, 1.000000000000000000, 0.000000000000000000 ) ) ;
#226 = DIRECTION ( 'NONE',  ( -0.000000000000000000, 1.000000000000000000, -0.000000000000000000 ) ) ;
#227 = CARTESIAN_POINT ( 'NONE',  ( 2.424999999999999378, 0.8000000000000003775, -2.249999999999999556 ) ) ;
#228 = EDGE_LOOP ( 'NONE', ( #233, #440, #303, #327, #425 ) ) ;
#229 = DIRECTION ( 'NONE',  ( 0.000000000000000000, 0.000000000000000000, 1.000000000000000000 ) ) ;
#230 = ORIENTED_EDGE ( 'NONE', *, *, #252, .T. ) ;
#231 = ADVANCED_FACE ( 'NONE', ( #168 ), #90, .F. ) ;
#232 = CARTESIAN_POINT ( 'NONE',  ( 2.474999999999999645, 0.000000000000000000, -2.850000000000000533 ) ) ;
#233 = ORIENTED_EDGE ( 'NONE', *, *, #111, .T. ) ;
#234 = DIRECTION ( 'NONE',  ( -0.000000000000000000, -1.000000000000000000, -0.000000000000000000 ) ) ;
#235 = ORIENTED_EDGE ( 'NONE', *, *, #325, .T. ) ;
#236 = PERSON_AND_ORGANIZATION ( #27, #70 ) ;
#237 = CARTESIAN_POINT ( 'NONE',  ( -2.424999999999999378, 0.8000000000000003775, 2.054771785595985136E-16 ) ) ;
#238 = ORIENTED_EDGE ( 'NONE', *, *, #37, .F. ) ;
#239 = VECTOR ( 'NONE', #66, 1000.000000000000000 ) ;
#240 = DIRECTION ( 'NONE',  ( 0.000000000000000000, -0.000000000000000000, 1.000000000000000000 ) ) ;
#241 = VERTEX_POINT ( 'NONE', #349 ) ;
#242 = PERSON_AND_ORGANIZATION_ROLE ( 'classification_officer' ) ;
#243 = DIRECTION ( 'NONE',  ( 0.000000000000000000, -0.000000000000000000, 1.000000000000000000 ) ) ;
#244 = DIRECTION ( 'NONE',  ( 1.000000000000000000, 0.000000000000000000, 0.000000000000000000 ) ) ;
#245 = APPROVAL_ROLE ( '' ) ;
#246 = LINE ( 'NONE', #215, #26 ) ;
#247 = EDGE_CURVE ( 'NONE', #454, #311, #356, .T. ) ;
#248 = DIRECTION ( 'NONE',  ( -0.000000000000000000, -1.000000000000000000, -0.000000000000000000 ) ) ;
#249 = AXIS2_PLACEMENT_3D ( 'NONE', #134, #315, #471 ) ;
#250 = CIRCLE ( 'NONE', #85, 2.850000000000000533 ) ;
#251 = CARTESIAN_POINT ( 'NONE',  ( 2.474999999999999645, 14.90000000000000036, -2.850000000000000533 ) ) ;
#252 = EDGE_CURVE ( 'NONE', #311, #129, #246, .T. ) ;
#253 = UNCERTAINTY_MEASURE_WITH_UNIT (LENGTH_MEASURE( 1.000000000000000082E-05 ), #190, 'distance_accuracy_value', 'NONE');
#254 = DIRECTION ( 'NONE',  ( 0.000000000000000000, 1.000000000000000000, 0.000000000000000000 ) ) ;
#255 = EDGE_LOOP ( 'NONE', ( #46, #73 ) ) ;
#256 = CYLINDRICAL_SURFACE ( 'NONE', #399, 2.850000000000000533 ) ;
#257 = DIRECTION ( 'NONE',  ( -0.000000000000000000, -1.000000000000000000, -0.000000000000000000 ) ) ;
#258 = CYLINDRICAL_SURFACE ( 'NONE', #183, 2.850000000000000533 ) ;
#259 = EDGE_CURVE ( 'NONE', #468, #129, #473, .T. ) ;
#260 = AXIS2_PLACEMENT_3D ( 'NONE', #334, #480, #296 ) ;
#261 = DIRECTION ( 'NONE',  ( 1.000000000000000000, 0.000000000000000000, 0.000000000000000000 ) ) ;
#262 = VECTOR ( 'NONE', #444, 1000.000000000000000 ) ;
#263 = DIRECTION ( 'NONE',  ( -0.000000000000000000, -1.000000000000000000, -0.000000000000000000 ) ) ;
#264 = ORIENTED_EDGE ( 'NONE', *, *, #219, .T. ) ;
#265 = DIRECTION ( 'NONE',  ( 0.000000000000000000, 0.000000000000000000, 1.000000000000000000 ) ) ;
#266 = DIRECTION ( 'NONE',  ( -1.000000000000000000, 0.000000000000000000, -0.000000000000000000 ) ) ;
#267 = VERTEX_POINT ( 'NONE', #352 ) ;
#268 = ORIENTED_EDGE ( 'NONE', *, *, #177, .F. ) ;
#269 = VECTOR ( 'NONE', #248, 1000.000000000000000 ) ;
#270 = LINE ( 'NONE', #413, #112 ) ;
#271 = ORIENTED_EDGE ( 'NONE', *, *, #163, .T. ) ;
#272 = APPROVAL ( #383, 'UNSPECIFIED' ) ;
#273 = SHAPE_DEFINITION_REPRESENTATION ( #114, #322 ) ;
#274 = FACE_OUTER_BOUND ( 'NONE', #456, .T. ) ;
#275 = ORIENTED_EDGE ( 'NONE', *, *, #247, .T. ) ;
#276 = CARTESIAN_POINT ( 'NONE',  ( 2.424999999999999378, 0.8000000000000003775, 2.249999999999999556 ) ) ;
#277 = ORIENTED_EDGE ( 'NONE', *, *, #396, .T. ) ;
#278 =( GEOMETRIC_REPRESENTATION_CONTEXT ( 3 ) GLOBAL_UNCERTAINTY_ASSIGNED_CONTEXT ( ( #253 ) ) GLOBAL_UNIT_ASSIGNED_CONTEXT ( ( #190, #378, #9 ) ) REPRESENTATION_CONTEXT ( 'NONE', 'WORKASPACE' ) );
#279 = APPLICATION_PROTOCOL_DEFINITION ( 'international standard', 'config_control_design', 1994, #436 ) ;
#280 = CARTESIAN_POINT ( 'NONE',  ( -2.424999999999999378, 0.8000000000000003775, -2.249999999999999556 ) ) ;
#281 = ORIENTED_EDGE ( 'NONE', *, *, #247, .F. ) ;
#282 = CALENDAR_DATE ( 2024, 24, 7 ) ;
#283 = DIRECTION ( 'NONE',  ( -1.000000000000000000, -0.000000000000000000, -0.000000000000000000 ) ) ;
#284 = DIRECTION ( 'NONE',  ( 0.000000000000000000, -1.000000000000000000, 0.000000000000000000 ) ) ;
#285 = CALENDAR_DATE ( 2024, 24, 7 ) ;
#286 = DIRECTION ( 'NONE',  ( -0.000000000000000000, -1.000000000000000000, -0.000000000000000000 ) ) ;
#287 = VECTOR ( 'NONE', #319, 1000.000000000000000 ) ;
#288 = AXIS2_PLACEMENT_3D ( 'NONE', #371, #39, #44 ) ;
#289 = ADVANCED_FACE ( 'NONE', ( #420, #393 ), #432, .T. ) ;
#290 = FACE_OUTER_BOUND ( 'NONE', #228, .T. ) ;
#291 = ORIENTED_EDGE ( 'NONE', *, *, #380, .F. ) ;
#292 = CIRCLE ( 'NONE', #138, 2.250000000000000000 ) ;
#293 = CARTESIAN_POINT ( 'NONE',  ( -2.424999999999999378, 0.8000000000000003775, 2.249999999999999556 ) ) ;
#294 = CARTESIAN_POINT ( 'NONE',  ( -2.424999999999999378, 0.8000000000000003775, 2.054771785595985136E-16 ) ) ;
#295 = VERTEX_POINT ( 'NONE', #21 ) ;
#296 = DIRECTION ( 'NONE',  ( 0.000000000000000000, 0.000000000000000000, 1.000000000000000000 ) ) ;
#297 = CARTESIAN_POINT ( 'NONE',  ( 2.424999999999999378, 0.8000000000000003775, 2.054771785595984643E-16 ) ) ;
#298 = FACE_OUTER_BOUND ( 'NONE', #167, .T. ) ;
#299 = AXIS2_PLACEMENT_3D ( 'NONE', #405, #442, #68 ) ;
#300 = DIRECTION ( 'NONE',  ( 0.000000000000000000, 0.000000000000000000, -1.000000000000000000 ) ) ;
#301 = CIRCLE ( 'NONE', #71, 2.249999999999999556 ) ;
#302 = EDGE_CURVE ( 'NONE', #122, #454, #328, .T. ) ;
#303 = ORIENTED_EDGE ( 'NONE', *, *, #354, .F. ) ;
#304 = ORIENTED_EDGE ( 'NONE', *, *, #344, .F. ) ;
#305 = CIRCLE ( 'NONE', #366, 2.250000000000000000 ) ;
#306 = CARTESIAN_POINT ( 'NONE',  ( -2.474999999999999645, 0.000000000000000000, 0.000000000000000000 ) ) ;
#307 = EDGE_LOOP ( 'NONE', ( #88, #203, #281, #148 ) ) ;
#308 = CARTESIAN_POINT ( 'NONE',  ( 2.474999999999999645, 14.90000000000000036, 0.000000000000000000 ) ) ;
#309 = VERTEX_POINT ( 'NONE', #201 ) ;
#310 = DIRECTION ( 'NONE',  ( 1.000000000000000000, 0.000000000000000000, 0.000000000000000000 ) ) ;
#311 = VERTEX_POINT ( 'NONE', #62 ) ;
#312 = COORDINATED_UNIVERSAL_TIME_OFFSET ( 8, 0, .AHEAD. ) ;
#313 = EDGE_CURVE ( 'NONE', #33, #339, #292, .T. ) ;
#314 = CARTESIAN_POINT ( 'NONE',  ( -2.474999999999999645, 14.90000000000000036, -2.850000000000000533 ) ) ;
#315 = DIRECTION ( 'NONE',  ( 0.000000000000000000, -1.000000000000000000, 0.000000000000000000 ) ) ;
#316 = PERSON_AND_ORGANIZATION_ROLE ( 'design_owner' ) ;
#317 = CYLINDRICAL_SURFACE ( 'NONE', #476, 2.250000000000000000 ) ;
#318 = APPROVAL ( #392, 'UNSPECIFIED' ) ;
#319 = DIRECTION ( 'NONE',  ( -1.000000000000000000, -0.000000000000000000, -0.000000000000000000 ) ) ;
#320 = PLANE ( 'NONE',  #299 ) ;
#321 = AXIS2_PLACEMENT_3D ( 'NONE', #197, #193, #117 ) ;
#322 = ADVANCED_BREP_SHAPE_REPRESENTATION ( 'Type C Male Cover', ( #422, #337 ), #278 ) ;
#323 = ORIENTED_EDGE ( 'NONE', *, *, #478, .T. ) ;
#324 = FACE_OUTER_BOUND ( 'NONE', #390, .T. ) ;
#325 = EDGE_CURVE ( 'NONE', #330, #185, #359, .T. ) ;
#326 = CIRCLE ( 'NONE', #249, 2.250000000000000000 ) ;
#327 = ORIENTED_EDGE ( 'NONE', *, *, #478, .F. ) ;
#328 = CIRCLE ( 'NONE', #145, 2.850000000000000533 ) ;
#329 = CARTESIAN_POINT ( 'NONE',  ( 2.755455298081544285E-16, 0.000000000000000000, 2.250000000000000000 ) ) ;
#330 = VERTEX_POINT ( 'NONE', #276 ) ;
#331 = DIRECTION ( 'NONE',  ( 0.000000000000000000, -0.000000000000000000, 1.000000000000000000 ) ) ;
#332 = CARTESIAN_POINT ( 'NONE',  ( 0.000000000000000000, 14.90000000000000036, 0.000000000000000000 ) ) ;
#333 = EDGE_LOOP ( 'NONE', ( #238, #91, #1, #323 ) ) ;
#334 = CARTESIAN_POINT ( 'NONE',  ( -2.474999999999999645, 14.90000000000000036, 0.000000000000000000 ) ) ;
#335 = ADVANCED_FACE ( 'NONE', ( #428 ), #317, .F. ) ;
#336 = CARTESIAN_POINT ( 'NONE',  ( -2.474999999999999645, 14.90000000000000036, 2.850000000000000533 ) ) ;
#337 = AXIS2_PLACEMENT_3D ( 'NONE', #343, #398, #472 ) ;
#338 = PLANE ( 'NONE',  #159 ) ;
#339 = VERTEX_POINT ( 'NONE', #101 ) ;
#340 = APPROVAL ( #466, 'UNSPECIFIED' ) ;
#341 = DIRECTION ( 'NONE',  ( 0.000000000000000000, 0.000000000000000000, 1.000000000000000000 ) ) ;
#342 = ORIENTED_EDGE ( 'NONE', *, *, #170, .F. ) ;
#343 = CARTESIAN_POINT ( 'NONE',  ( 0.000000000000000000, 0.000000000000000000, 0.000000000000000000 ) ) ;
#344 = EDGE_CURVE ( 'NONE', #353, #185, #166, .T. ) ;
#345 = ORIENTED_EDGE ( 'NONE', *, *, #163, .F. ) ;
#346 = VECTOR ( 'NONE', #226, 1000.000000000000000 ) ;
#347 = VECTOR ( 'NONE', #141, 1000.000000000000000 ) ;
#348 = COORDINATED_UNIVERSAL_TIME_OFFSET ( 8, 0, .AHEAD. ) ;
#349 = CARTESIAN_POINT ( 'NONE',  ( 0.000000000000000000, 0.000000000000000000, -2.250000000000000000 ) ) ;
#350 = ORIENTED_EDGE ( 'NONE', *, *, #354, .T. ) ;
#351 = COORDINATED_UNIVERSAL_TIME_OFFSET ( 8, 0, .AHEAD. ) ;
#352 = CARTESIAN_POINT ( 'NONE',  ( -2.424999999999999378, 0.8000000000000003775, 2.249999999999999556 ) ) ;
#353 = VERTEX_POINT ( 'NONE', #467 ) ;
#354 = EDGE_CURVE ( 'NONE', #33, #309, #400, .T. ) ;
#355 = PERSON_AND_ORGANIZATION ( #27, #70 ) ;
#356 = LINE ( 'NONE', #314, #447 ) ;
#357 = CARTESIAN_POINT ( 'NONE',  ( 0.000000000000000000, 0.000000000000000000, 0.000000000000000000 ) ) ;
#358 = PERSON_AND_ORGANIZATION ( #27, #70 ) ;
#359 = LINE ( 'NONE', #28, #449 ) ;
#360 = CC_DESIGN_PERSON_AND_ORGANIZATION_ASSIGNMENT ( #236, #316, ( #455 ) ) ;
#361 = CARTESIAN_POINT ( 'NONE',  ( -2.474999999999999645, 0.000000000000000000, -2.850000000000000533 ) ) ;
#362 = ORIENTED_EDGE ( 'NONE', *, *, #474, .F. ) ;
#363 = LINE ( 'NONE', #365, #140 ) ;
#364 = ADVANCED_FACE ( 'NONE', ( #172 ), #475, .T. ) ;
#365 = CARTESIAN_POINT ( 'NONE',  ( -2.424999999999999378, 14.90000000000000036, -2.249999999999999556 ) ) ;
#366 = AXIS2_PLACEMENT_3D ( 'NONE', #357, #284, #97 ) ;
#367 = EDGE_LOOP ( 'NONE', ( #414, #406, #19, #275 ) ) ;
#368 = AXIS2_PLACEMENT_3D ( 'NONE', #332, #234, #115 ) ;
#369 = LINE ( 'NONE', #158, #403 ) ;
#370 = CC_DESIGN_DATE_AND_TIME_ASSIGNMENT ( #165, #157, ( #173 ) ) ;
#371 = CARTESIAN_POINT ( 'NONE',  ( -2.424999999999999378, 0.8000000000000003775, 2.054771785595985136E-16 ) ) ;
#372 = DIRECTION ( 'NONE',  ( 0.000000000000000000, 1.000000000000000000, 0.000000000000000000 ) ) ;
#373 = ORIENTED_EDGE ( 'NONE', *, *, #98, .F. ) ;
#374 = FACE_OUTER_BOUND ( 'NONE', #382, .T. ) ;
#375 = PLANE ( 'NONE',  #388 ) ;
#376 = EDGE_LOOP ( 'NONE', ( #35, #419, #207, #277 ) ) ;
#377 = APPROVAL_PERSON_ORGANIZATION ( #65, #318, #57 ) ;
#378 =( NAMED_UNIT ( * ) PLANE_ANGLE_UNIT ( ) SI_UNIT ( $, .RADIAN. ) );
#379 = ORIENTED_EDGE ( 'NONE', *, *, #75, .F. ) ;
#380 = EDGE_CURVE ( 'NONE', #41, #122, #439, .T. ) ;
#381 = CARTESIAN_POINT ( 'NONE',  ( -2.474999999999999645, 0.000000000000000000, 0.000000000000000000 ) ) ;
#382 = EDGE_LOOP ( 'NONE', ( #416, #194, #373, #235 ) ) ;
#383 = APPROVAL_STATUS ( 'not_yet_approved' ) ;
#384 = APPLICATION_CONTEXT ( 'configuration controlled 3d designs of mechanical parts and assemblies' ) ;
#385 = DIRECTION ( 'NONE',  ( 0.000000000000000000, 1.000000000000000000, 0.000000000000000000 ) ) ;
#386 = EDGE_LOOP ( 'NONE', ( #445, #410, #379, #198, #271 ) ) ;
#387 = CC_DESIGN_APPROVAL ( #318, ( #173 ) ) ;
#388 = AXIS2_PLACEMENT_3D ( 'NONE', #336, #154, #266 ) ;
#389 = DIRECTION ( 'NONE',  ( 0.000000000000000000, 0.000000000000000000, -1.000000000000000000 ) ) ;
#390 = EDGE_LOOP ( 'NONE', ( #86, #342, #162, #230 ) ) ;
#391 = ADVANCED_FACE ( 'NONE', ( #176 ), #479, .T. ) ;
#392 = APPROVAL_STATUS ( 'not_yet_approved' ) ;
#393 = FACE_OUTER_BOUND ( 'NONE', #367, .T. ) ;
#394 = CARTESIAN_POINT ( 'NONE',  ( -2.424999999999999378, 14.90000000000000036, -2.249999999999999556 ) ) ;
#395 = DIRECTION ( 'NONE',  ( 0.000000000000000000, 0.000000000000000000, 1.000000000000000000 ) ) ;
#396 = EDGE_CURVE ( 'NONE', #122, #429, #437, .T. ) ;
#397 = CC_DESIGN_SECURITY_CLASSIFICATION ( #173, ( #151 ) ) ;
#398 = DIRECTION ( 'NONE',  ( 0.000000000000000000, 0.000000000000000000, 1.000000000000000000 ) ) ;
#399 = AXIS2_PLACEMENT_3D ( 'NONE', #412, #2, #446 ) ;
#400 = LINE ( 'NONE', #280, #239 ) ;
#401 = CYLINDRICAL_SURFACE ( 'NONE', #368, 2.250000000000000000 ) ;
#402 = LOCAL_TIME ( 20, 34, 54.00000000000000000, #459 ) ;
#403 = VECTOR ( 'NONE', #121, 1000.000000000000000 ) ;
#404 = ADVANCED_FACE ( 'NONE', ( #290 ), #320, .F. ) ;
#405 = CARTESIAN_POINT ( 'NONE',  ( -2.424999999999999378, 0.8000000000000003775, -2.249999999999999556 ) ) ;
#406 = ORIENTED_EDGE ( 'NONE', *, *, #380, .T. ) ;
#407 = CARTESIAN_POINT ( 'NONE',  ( 2.474999999999999645, 14.90000000000000036, 0.000000000000000000 ) ) ;
#408 = CC_DESIGN_PERSON_AND_ORGANIZATION_ASSIGNMENT ( #355, #242, ( #173 ) ) ;
#409 = DIRECTION ( 'NONE',  ( 0.000000000000000000, 1.000000000000000000, 0.000000000000000000 ) ) ;
#410 = ORIENTED_EDGE ( 'NONE', *, *, #325, .F. ) ;
#411 = VECTOR ( 'NONE', #222, 1000.000000000000000 ) ;
#412 = CARTESIAN_POINT ( 'NONE',  ( -2.474999999999999645, 14.90000000000000036, 0.000000000000000000 ) ) ;
#413 = CARTESIAN_POINT ( 'NONE',  ( -2.424999999999999378, 0.8000000000000003775, -2.249999999999999556 ) ) ;
#414 = ORIENTED_EDGE ( 'NONE', *, *, #155, .T. ) ;
#415 = FACE_BOUND ( 'NONE', #255, .T. ) ;
#416 = ORIENTED_EDGE ( 'NONE', *, *, #474, .T. ) ;
#417 = EDGE_CURVE ( 'NONE', #454, #468, #216, .T. ) ;
#418 = VECTOR ( 'NONE', #137, 1000.000000000000000 ) ;
#419 = ORIENTED_EDGE ( 'NONE', *, *, #417, .F. ) ;
#420 = FACE_BOUND ( 'NONE', #118, .T. ) ;
#421 = ORIENTED_EDGE ( 'NONE', *, *, #170, .T. ) ;
#422 = MANIFOLD_SOLID_BREP ( 'Cut-Extrude1', #63 ) ;
#423 = ADVANCED_FACE ( 'NONE', ( #103 ), #401, .F. ) ;
#424 = CARTESIAN_POINT ( 'NONE',  ( 0.000000000000000000, 14.90000000000000036, 0.000000000000000000 ) ) ;
#425 = ORIENTED_EDGE ( 'NONE', *, *, #214, .T. ) ;
#426 = APPROVAL_PERSON_ORGANIZATION ( #205, #340, #245 ) ;
#427 = PERSON_AND_ORGANIZATION ( #27, #70 ) ;
#428 = FACE_OUTER_BOUND ( 'NONE', #51, .T. ) ;
#429 = VERTEX_POINT ( 'NONE', #187 ) ;
#430 = CALENDAR_DATE ( 2024, 24, 7 ) ;
#431 = CARTESIAN_POINT ( 'NONE',  ( -2.474999999999999645, 14.90000000000000036, 0.000000000000000000 ) ) ;
#432 = PLANE ( 'NONE',  #77 ) ;
#433 = CIRCLE ( 'NONE', #49, 2.850000000000000533 ) ;
#434 = ADVANCED_FACE ( 'NONE', ( #298 ), #375, .F. ) ;
#435 = CIRCLE ( 'NONE', #288, 2.249999999999999556 ) ;
#436 = APPLICATION_CONTEXT ( 'configuration controlled 3d designs of mechanical parts and assemblies' ) ;
#437 = LINE ( 'NONE', #220, #31 ) ;
#438 = EDGE_CURVE ( 'NONE', #129, #295, #250, .T. ) ;
#439 = LINE ( 'NONE', #32, #458 ) ;
#440 = ORIENTED_EDGE ( 'NONE', *, *, #105, .F. ) ;
#441 = CYLINDRICAL_SURFACE ( 'NONE', #94, 2.249999999999999556 ) ;
#442 = DIRECTION ( 'NONE',  ( 0.000000000000000000, 0.000000000000000000, -1.000000000000000000 ) ) ;
#443 = EDGE_CURVE ( 'NONE', #33, #241, #452, .T. ) ;
#444 = DIRECTION ( 'NONE',  ( 1.000000000000000000, 0.000000000000000000, 0.000000000000000000 ) ) ;
#445 = ORIENTED_EDGE ( 'NONE', *, *, #344, .T. ) ;
#446 = DIRECTION ( 'NONE',  ( 0.000000000000000000, 0.000000000000000000, -1.000000000000000000 ) ) ;
#447 = VECTOR ( 'NONE', #283, 1000.000000000000000 ) ;
#448 = CARTESIAN_POINT ( 'NONE',  ( 2.474999999999999645, 14.90000000000000036, -2.850000000000000533 ) ) ;
#449 = VECTOR ( 'NONE', #171, 1000.000000000000000 ) ;
#450 = DIRECTION ( 'NONE',  ( 0.000000000000000000, 1.000000000000000000, 0.000000000000000000 ) ) ;
#451 = APPLICATION_PROTOCOL_DEFINITION ( 'international standard', 'config_control_design', 1994, #384 ) ;
#452 = LINE ( 'NONE', #4, #213 ) ;
#453 = EDGE_CURVE ( 'NONE', #309, #267, #435, .T. ) ;
#454 = VERTEX_POINT ( 'NONE', #448 ) ;
#455 = PRODUCT ( 'Type C Male Cover', 'Type C Male Cover', '', ( #54 ) ) ;
#456 = EDGE_LOOP ( 'NONE', ( #104, #345, #11, #45 ) ) ;
#457 = VECTOR ( 'NONE', #244, 1000.000000000000000 ) ;
#458 = VECTOR ( 'NONE', #481, 1000.000000000000000 ) ;
#459 = COORDINATED_UNIVERSAL_TIME_OFFSET ( 8, 0, .AHEAD. ) ;
#460 = CYLINDRICAL_SURFACE ( 'NONE', #477, 2.249999999999999556 ) ;
#461 = ORIENTED_EDGE ( 'NONE', *, *, #438, .F. ) ;
#462 = PRODUCT_RELATED_PRODUCT_CATEGORY ( 'detail', '', ( #455 ) ) ;
#463 = DATE_TIME_ROLE ( 'creation_date' ) ;
#464 = CARTESIAN_POINT ( 'NONE',  ( 0.000000000000000000, 0.8000000000000003775, 0.000000000000000000 ) ) ;
#465 = VERTEX_POINT ( 'NONE', #227 ) ;
#466 = APPROVAL_STATUS ( 'not_yet_approved' ) ;
#467 = CARTESIAN_POINT ( 'NONE',  ( -2.424999999999999378, 14.90000000000000036, 2.249999999999999556 ) ) ;
#468 = VERTEX_POINT ( 'NONE', #232 ) ;
#469 = DATE_AND_TIME ( #282, #7 ) ;
#470 = DIRECTION ( 'NONE',  ( 1.000000000000000000, 0.000000000000000000, -0.000000000000000000 ) ) ;
#471 = DIRECTION ( 'NONE',  ( 0.000000000000000000, 0.000000000000000000, -1.000000000000000000 ) ) ;
#472 = DIRECTION ( 'NONE',  ( 1.000000000000000000, 0.000000000000000000, 0.000000000000000000 ) ) ;
#473 = LINE ( 'NONE', #361, #287 ) ;
#474 = EDGE_CURVE ( 'NONE', #185, #152, #78, .T. ) ;
#475 = PLANE ( 'NONE',  #16 ) ;
#476 = AXIS2_PLACEMENT_3D ( 'NONE', #424, #286, #389 ) ;
#477 = AXIS2_PLACEMENT_3D ( 'NONE', #297, #72, #109 ) ;
#478 = EDGE_CURVE ( 'NONE', #465, #33, #270, .T. ) ;
#479 = PLANE ( 'NONE',  #202 ) ;
#480 = DIRECTION ( 'NONE',  ( 0.000000000000000000, 1.000000000000000000, 0.000000000000000000 ) ) ;
#481 = DIRECTION ( 'NONE',  ( 1.000000000000000000, 0.000000000000000000, 0.000000000000000000 ) ) ;
ENDSEC;
END-ISO-10303-21;
