ISO-10303-21;
HEADER;
FILE_DESCRIPTION (( 'STEP AP203' ),
    '1' );
FILE_NAME ('Type C Male Wire Tube.STEP',
    '2024-07-24T12:34:37',
    ( '' ),
    ( '' ),
    'SwSTEP 2.0',
    'SolidWorks 2022',
    '' );
FILE_SCHEMA (( 'CONFIG_CONTROL_DESIGN' ));
ENDSEC;

DATA;
#1 = DIRECTION ( 'NONE',  ( 1.000000000000000000, -0.000000000000000000, 0.000000000000000000 ) ) ;
#2 = LINE ( 'NONE', #109, #380 ) ;
#3 = VERTEX_POINT ( 'NONE', #296 ) ;
#4 = LINE ( 'NONE', #359, #191 ) ;
#5 = CARTESIAN_POINT ( 'NONE',  ( -4.000000000000000000, 8.450000000000001066, 1.000000000000000000 ) ) ;
#6 = ORIENTED_EDGE ( 'NONE', *, *, #96, .F. ) ;
#7 = EDGE_CURVE ( 'NONE', #106, #338, #41, .T. ) ;
#8 = CARTESIAN_POINT ( 'NONE',  ( -2.350000000000000089, 7.250000000000000000, -2.200000000000000178 ) ) ;
#9 = ORIENTED_EDGE ( 'NONE', *, *, #177, .F. ) ;
#10 = VECTOR ( 'NONE', #188, 1000.000000000000000 ) ;
#11 = PERSON_AND_ORGANIZATION ( #381, #628 ) ;
#12 = LINE ( 'NONE', #168, #564 ) ;
#13 = ORIENTED_EDGE ( 'NONE', *, *, #302, .T. ) ;
#14 = APPLICATION_PROTOCOL_DEFINITION ( 'international standard', 'config_control_design', 1994, #499 ) ;
#15 = DIRECTION ( 'NONE',  ( 0.000000000000000000, 0.000000000000000000, 1.000000000000000000 ) ) ;
#16 = ORIENTED_EDGE ( 'NONE', *, *, #347, .T. ) ;
#17 = DIRECTION ( 'NONE',  ( -0.000000000000000000, 1.000000000000000000, -0.000000000000000000 ) ) ;
#18 = VERTEX_POINT ( 'NONE', #614 ) ;
#19 = APPROVAL_ROLE ( '' ) ;
#20 = VECTOR ( 'NONE', #346, 1000.000000000000000 ) ;
#21 = CARTESIAN_POINT ( 'NONE',  ( 4.000000000000000000, 8.450000000000001066, -1.000000000000001110 ) ) ;
#22 = APPROVAL_PERSON_ORGANIZATION ( #635, #344, #224 ) ;
#23 = EDGE_LOOP ( 'NONE', ( #9, #418, #515, #273 ) ) ;
#24 = CARTESIAN_POINT ( 'NONE',  ( 2.020667218593132508E-16, 8.450000000000001066, -1.650000000000000133 ) ) ;
#25 = ORIENTED_EDGE ( 'NONE', *, *, #633, .F. ) ;
#26 = EDGE_CURVE ( 'NONE', #93, #527, #28, .T. ) ;
#27 = LINE ( 'NONE', #82, #20 ) ;
#28 = LINE ( 'NONE', #144, #117 ) ;
#29 = CARTESIAN_POINT ( 'NONE',  ( 2.350000000000000089, 8.450000000000001066, -1.000000000000000222 ) ) ;
#30 = VECTOR ( 'NONE', #312, 1000.000000000000000 ) ;
#31 = EDGE_LOOP ( 'NONE', ( #390, #541, #262, #427, #166 ) ) ;
#32 = CC_DESIGN_DATE_AND_TIME_ASSIGNMENT ( #630, #531, ( #294 ) ) ;
#33 = DIRECTION ( 'NONE',  ( 1.000000000000000000, -0.000000000000000000, 0.000000000000000000 ) ) ;
#34 = CARTESIAN_POINT ( 'NONE',  ( -2.350000000000000089, 8.450000000000001066, 2.200000000000000178 ) ) ;
#35 = EDGE_CURVE ( 'NONE', #93, #411, #245, .T. ) ;
#36 = DIRECTION ( 'NONE',  ( 0.000000000000000000, 0.000000000000000000, 1.000000000000000000 ) ) ;
#37 = EDGE_LOOP ( 'NONE', ( #547, #539, #16, #591, #227, #586, #333, #13, #205, #99, #383, #469 ) ) ;
#38 = DIRECTION ( 'NONE',  ( -0.000000000000000000, -0.000000000000000000, -1.000000000000000000 ) ) ;
#39 = CC_DESIGN_APPROVAL ( #40, ( #399 ) ) ;
#40 = APPROVAL ( #275, 'UNSPECIFIED' ) ;
#41 = LINE ( 'NONE', #403, #335 ) ;
#42 = VECTOR ( 'NONE', #210, 1000.000000000000000 ) ;
#43 = APPROVAL_PERSON_ORGANIZATION ( #425, #615, #19 ) ;
#44 = FACE_OUTER_BOUND ( 'NONE', #432, .T. ) ;
#45 = CARTESIAN_POINT ( 'NONE',  ( 2.350000000000000089, 8.450000000000001066, 1.000000000000000222 ) ) ;
#46 = EDGE_CURVE ( 'NONE', #106, #201, #350, .T. ) ;
#47 = DIRECTION ( 'NONE',  ( 0.000000000000000000, 1.000000000000000000, 0.000000000000000000 ) ) ;
#48 = VERTEX_POINT ( 'NONE', #146 ) ;
#49 = CARTESIAN_POINT ( 'NONE',  ( 4.000000000000000000, 8.450000000000001066, -1.000000000000001110 ) ) ;
#50 = DIRECTION ( 'NONE',  ( -7.885106708985478187E-16, 0.000000000000000000, -1.000000000000000000 ) ) ;
#51 = AXIS2_PLACEMENT_3D ( 'NONE', #375, #372, #175 ) ;
#52 = ADVANCED_FACE ( 'NONE', ( #653 ), #662, .F. ) ;
#53 = DIRECTION ( 'NONE',  ( 1.000000000000000000, 0.000000000000000000, -0.000000000000000000 ) ) ;
#54 = CARTESIAN_POINT ( 'NONE',  ( 4.000000000000001776, 8.450000000000001066, 0.9999999999999988898 ) ) ;
#55 = ORIENTED_EDGE ( 'NONE', *, *, #278, .F. ) ;
#56 = ADVANCED_FACE ( 'NONE', ( #555 ), #348, .F. ) ;
#57 = PLANE ( 'NONE',  #574 ) ;
#58 = DIRECTION ( 'NONE',  ( -0.000000000000000000, -1.000000000000000000, -0.000000000000000000 ) ) ;
#59 = ORIENTED_EDGE ( 'NONE', *, *, #542, .T. ) ;
#60 = DATE_TIME_ROLE ( 'classification_date' ) ;
#61 = CARTESIAN_POINT ( 'NONE',  ( -2.350000000000000089, 7.250000000000000000, 2.200000000000000178 ) ) ;
#62 = EDGE_CURVE ( 'NONE', #220, #361, #195, .T. ) ;
#63 = ORIENTED_EDGE ( 'NONE', *, *, #274, .F. ) ;
#64 = VECTOR ( 'NONE', #72, 1000.000000000000000 ) ;
#65 = FACE_OUTER_BOUND ( 'NONE', #414, .T. ) ;
#66 = ORIENTED_EDGE ( 'NONE', *, *, #649, .F. ) ;
#67 = CALENDAR_DATE ( 2024, 24, 7 ) ;
#68 = LINE ( 'NONE', #441, #345 ) ;
#69 = EDGE_CURVE ( 'NONE', #496, #498, #450, .T. ) ;
#70 = ORIENTED_EDGE ( 'NONE', *, *, #494, .F. ) ;
#71 = DIRECTION ( 'NONE',  ( 0.000000000000000000, 0.000000000000000000, 1.000000000000000000 ) ) ;
#72 = DIRECTION ( 'NONE',  ( -0.000000000000000000, -1.000000000000000000, -0.000000000000000000 ) ) ;
#73 = ORIENTED_EDGE ( 'NONE', *, *, #549, .T. ) ;
#74 = LOCAL_TIME ( 20, 34, 37.00000000000000000, #371 ) ;
#75 = VECTOR ( 'NONE', #349, 1000.000000000000000 ) ;
#76 = DIRECTION ( 'NONE',  ( 0.000000000000000000, 1.000000000000000000, 0.000000000000000000 ) ) ;
#77 = VERTEX_POINT ( 'NONE', #95 ) ;
#78 = EDGE_CURVE ( 'NONE', #327, #181, #669, .T. ) ;
#79 = DIRECTION ( 'NONE',  ( 1.000000000000000000, -0.000000000000000000, -0.000000000000000000 ) ) ;
#80 = VERTEX_POINT ( 'NONE', #8 ) ;
#81 = ADVANCED_BREP_SHAPE_REPRESENTATION ( 'Type C Male Wire Tube', ( #437, #502 ), #545 ) ;
#82 = CARTESIAN_POINT ( 'NONE',  ( 2.350000000000000089, 7.250000000000000000, -2.200000000000000178 ) ) ;
#83 = CARTESIAN_POINT ( 'NONE',  ( 0.000000000000000000, 0.000000000000000000, 0.000000000000000000 ) ) ;
#84 = EDGE_CURVE ( 'NONE', #299, #567, #2, .T. ) ;
#85 = DIRECTION ( 'NONE',  ( 0.000000000000000000, 1.000000000000000000, 0.000000000000000000 ) ) ;
#86 = VECTOR ( 'NONE', #272, 1000.000000000000000 ) ;
#87 = EDGE_CURVE ( 'NONE', #286, #161, #518, .T. ) ;
#88 = CARTESIAN_POINT ( 'NONE',  ( -2.350000000000000089, 8.450000000000001066, 1.000000000000000222 ) ) ;
#89 = FACE_OUTER_BOUND ( 'NONE', #670, .T. ) ;
#90 = EDGE_LOOP ( 'NONE', ( #63, #559, #582, #606 ) ) ;
#91 = EDGE_CURVE ( 'NONE', #597, #327, #253, .T. ) ;
#92 = DIRECTION ( 'NONE',  ( 1.000000000000000000, -0.000000000000000000, -0.000000000000000000 ) ) ;
#93 = VERTEX_POINT ( 'NONE', #45 ) ;
#94 = FACE_OUTER_BOUND ( 'NONE', #666, .T. ) ;
#95 = CARTESIAN_POINT ( 'NONE',  ( -4.000000000000000000, 7.250000000000000000, -1.000000000000000000 ) ) ;
#96 = EDGE_CURVE ( 'NONE', #498, #567, #421, .T. ) ;
#97 = DIRECTION ( 'NONE',  ( 0.000000000000000000, -0.000000000000000000, -1.000000000000000000 ) ) ;
#98 = CARTESIAN_POINT ( 'NONE',  ( 0.000000000000000000, 0.000000000000000000, 1.650000000000000133 ) ) ;
#99 = ORIENTED_EDGE ( 'NONE', *, *, #46, .T. ) ;
#100 = LINE ( 'NONE', #304, #310 ) ;
#101 = DIRECTION ( 'NONE',  ( -0.000000000000000000, 1.000000000000000000, -0.000000000000000000 ) ) ;
#102 = EDGE_LOOP ( 'NONE', ( #55, #248, #110, #288 ) ) ;
#103 = PLANE ( 'NONE',  #397 ) ;
#104 = DIRECTION ( 'NONE',  ( -1.000000000000000000, 0.000000000000000000, -0.000000000000000000 ) ) ;
#105 = AXIS2_PLACEMENT_3D ( 'NONE', #447, #652, #656 ) ;
#106 = VERTEX_POINT ( 'NONE', #303 ) ;
#107 = AXIS2_PLACEMENT_3D ( 'NONE', #292, #33, #337 ) ;
#108 = CARTESIAN_POINT ( 'NONE',  ( 2.350000000000000089, 7.250000000000000000, -1.000000000000000222 ) ) ;
#109 = CARTESIAN_POINT ( 'NONE',  ( 2.350000000000000089, 8.450000000000001066, -1.000000000000000222 ) ) ;
#110 = ORIENTED_EDGE ( 'NONE', *, *, #233, .T. ) ;
#111 = PERSON_AND_ORGANIZATION_ROLE ( 'classification_officer' ) ;
#112 = LINE ( 'NONE', #585, #64 ) ;
#113 = VERTEX_POINT ( 'NONE', #363 ) ;
#114 = SHAPE_DEFINITION_REPRESENTATION ( #351, #81 ) ;
#115 = CARTESIAN_POINT ( 'NONE',  ( -2.350000000000000089, 8.450000000000001066, 1.000000000000000222 ) ) ;
#116 = ORIENTED_EDGE ( 'NONE', *, *, #416, .F. ) ;
#117 = VECTOR ( 'NONE', #240, 1000.000000000000000 ) ;
#118 = VECTOR ( 'NONE', #521, 1000.000000000000000 ) ;
#119 = CARTESIAN_POINT ( 'NONE',  ( 0.000000000000000000, 0.000000000000000000, 0.000000000000000000 ) ) ;
#120 = UNCERTAINTY_MEASURE_WITH_UNIT (LENGTH_MEASURE( 1.000000000000000082E-05 ), #151, 'distance_accuracy_value', 'NONE');
#121 = DIRECTION ( 'NONE',  ( -0.000000000000000000, -0.000000000000000000, -1.000000000000000000 ) ) ;
#122 = ORIENTED_EDGE ( 'NONE', *, *, #192, .T. ) ;
#123 = APPLICATION_PROTOCOL_DEFINITION ( 'international standard', 'config_control_design', 1994, #535 ) ;
#124 = DIRECTION ( 'NONE',  ( 0.000000000000000000, 0.000000000000000000, 1.000000000000000000 ) ) ;
#125 = ORIENTED_EDGE ( 'NONE', *, *, #69, .F. ) ;
#126 = PERSON_AND_ORGANIZATION_ROLE ( 'design_owner' ) ;
#127 = CARTESIAN_POINT ( 'NONE',  ( 2.350000000000000089, 8.450000000000001066, -1.000000000000000222 ) ) ;
#128 = ORIENTED_EDGE ( 'NONE', *, *, #407, .F. ) ;
#129 = EDGE_CURVE ( 'NONE', #481, #181, #264, .T. ) ;
#130 = AXIS2_PLACEMENT_3D ( 'NONE', #305, #475, #104 ) ;
#131 = CARTESIAN_POINT ( 'NONE',  ( 2.350000000000000089, 8.450000000000001066, 2.200000000000000178 ) ) ;
#132 = ORIENTED_EDGE ( 'NONE', *, *, #84, .F. ) ;
#133 = ADVANCED_FACE ( 'NONE', ( #472 ), #417, .F. ) ;
#134 = DIRECTION ( 'NONE',  ( 0.000000000000000000, -0.000000000000000000, -1.000000000000000000 ) ) ;
#135 = EDGE_LOOP ( 'NONE', ( #612, #501, #461, #343, #551 ) ) ;
#136 = CARTESIAN_POINT ( 'NONE',  ( 0.000000000000000000, 0.000000000000000000, 0.000000000000000000 ) ) ;
#137 = DIRECTION ( 'NONE',  ( 0.000000000000000000, 0.000000000000000000, 1.000000000000000000 ) ) ;
#138 = LOCAL_TIME ( 20, 34, 37.00000000000000000, #482 ) ;
#139 = CARTESIAN_POINT ( 'NONE',  ( 4.000000000000001776, 7.250000000000000000, 0.9999999999999988898 ) ) ;
#140 = CIRCLE ( 'NONE', #509, 1.650000000000000133 ) ;
#141 = ORIENTED_EDGE ( 'NONE', *, *, #488, .T. ) ;
#142 = AXIS2_PLACEMENT_3D ( 'NONE', #389, #180, #386 ) ;
#143 = DIRECTION ( 'NONE',  ( -1.000000000000000000, -0.000000000000000000, -0.000000000000000000 ) ) ;
#144 = CARTESIAN_POINT ( 'NONE',  ( 2.350000000000000089, 8.450000000000001066, 1.000000000000000222 ) ) ;
#145 = FACE_OUTER_BOUND ( 'NONE', #135, .T. ) ;
#146 = CARTESIAN_POINT ( 'NONE',  ( -2.350000000000000089, 8.450000000000001066, -1.000000000000000222 ) ) ;
#147 = FACE_OUTER_BOUND ( 'NONE', #234, .T. ) ;
#148 = DIRECTION ( 'NONE',  ( 0.000000000000000000, 0.000000000000000000, 1.000000000000000000 ) ) ;
#149 = VECTOR ( 'NONE', #317, 1000.000000000000000 ) ;
#150 = ORIENTED_EDGE ( 'NONE', *, *, #182, .F. ) ;
#151 =( LENGTH_UNIT ( ) NAMED_UNIT ( * ) SI_UNIT ( .MILLI., .METRE. ) );
#152 = CC_DESIGN_PERSON_AND_ORGANIZATION_ASSIGNMENT ( #213, #537, ( #294 ) ) ;
#153 = FACE_OUTER_BOUND ( 'NONE', #223, .T. ) ;
#154 = ORIENTED_EDGE ( 'NONE', *, *, #219, .F. ) ;
#155 = DIRECTION ( 'NONE',  ( 0.000000000000000000, 1.000000000000000000, 0.000000000000000000 ) ) ;
#156 = ADVANCED_FACE ( 'NONE', ( #526 ), #632, .F. ) ;
#157 = CARTESIAN_POINT ( 'NONE',  ( 2.350000000000000089, 7.250000000000000000, -1.000000000000000222 ) ) ;
#158 = ORIENTED_EDGE ( 'NONE', *, *, #163, .F. ) ;
#159 = LINE ( 'NONE', #616, #314 ) ;
#160 = CARTESIAN_POINT ( 'NONE',  ( -2.350000000000000089, 8.450000000000001066, -2.200000000000000178 ) ) ;
#161 = VERTEX_POINT ( 'NONE', #622 ) ;
#162 = CIRCLE ( 'NONE', #520, 2.200000000000000178 ) ;
#163 = EDGE_CURVE ( 'NONE', #48, #358, #410, .T. ) ;
#164 = PERSON_AND_ORGANIZATION ( #381, #628 ) ;
#165 = DIRECTION ( 'NONE',  ( -0.000000000000000000, -1.000000000000000000, -0.000000000000000000 ) ) ;
#166 = ORIENTED_EDGE ( 'NONE', *, *, #62, .T. ) ;
#167 = COORDINATED_UNIVERSAL_TIME_OFFSET ( 8, 0, .AHEAD. ) ;
#168 = CARTESIAN_POINT ( 'NONE',  ( 4.000000000000001776, 8.450000000000001066, 0.9999999999999988898 ) ) ;
#169 = ORIENTED_EDGE ( 'NONE', *, *, #84, .T. ) ;
#170 = EDGE_CURVE ( 'NONE', #161, #323, #140, .T. ) ;
#171 = DIRECTION ( 'NONE',  ( 1.314184451497581259E-16, -0.000000000000000000, 1.000000000000000000 ) ) ;
#172 = ORIENTED_EDGE ( 'NONE', *, *, #306, .F. ) ;
#173 = AXIS2_PLACEMENT_3D ( 'NONE', #255, #355, #97 ) ;
#174 = DATE_AND_TIME ( #487, #420 ) ;
#175 = DIRECTION ( 'NONE',  ( 0.000000000000000000, 0.000000000000000000, -1.000000000000000000 ) ) ;
#176 = ORIENTED_EDGE ( 'NONE', *, *, #532, .F. ) ;
#177 = EDGE_CURVE ( 'NONE', #561, #442, #566, .T. ) ;
#178 = CARTESIAN_POINT ( 'NONE',  ( 0.000000000000000000, 7.250000000000000000, 0.000000000000000000 ) ) ;
#179 = ORIENTED_EDGE ( 'NONE', *, *, #69, .T. ) ;
#180 = DIRECTION ( 'NONE',  ( -0.000000000000000000, -1.000000000000000000, -0.000000000000000000 ) ) ;
#181 = VERTEX_POINT ( 'NONE', #251 ) ;
#182 = EDGE_CURVE ( 'NONE', #258, #77, #207, .T. ) ;
#183 = VECTOR ( 'NONE', #121, 1000.000000000000000 ) ;
#184 = CARTESIAN_POINT ( 'NONE',  ( -4.000000000000000000, 7.250000000000000000, 1.000000000000000000 ) ) ;
#185 = ORIENTED_EDGE ( 'NONE', *, *, #267, .T. ) ;
#186 = DIRECTION ( 'NONE',  ( -0.000000000000000000, -0.000000000000000000, -1.000000000000000000 ) ) ;
#187 = EDGE_CURVE ( 'NONE', #3, #561, #600, .T. ) ;
#188 = DIRECTION ( 'NONE',  ( -1.000000000000000000, -0.000000000000000000, -0.000000000000000000 ) ) ;
#189 = CARTESIAN_POINT ( 'NONE',  ( 2.694222958124176513E-16, 0.000000000000000000, 2.200000000000000178 ) ) ;
#190 = CARTESIAN_POINT ( 'NONE',  ( 4.000000000000001776, 8.450000000000001066, 0.9999999999999988898 ) ) ;
#191 = VECTOR ( 'NONE', #458, 1000.000000000000000 ) ;
#192 = EDGE_CURVE ( 'NONE', #286, #18, #216, .T. ) ;
#193 = FACE_OUTER_BOUND ( 'NONE', #102, .T. ) ;
#194 = AXIS2_PLACEMENT_3D ( 'NONE', #83, #47, #463 ) ;
#195 = LINE ( 'NONE', #34, #247 ) ;
#196 = PLANE ( 'NONE',  #557 ) ;
#197 = EDGE_CURVE ( 'NONE', #358, #597, #413, .T. ) ;
#198 = ORIENTED_EDGE ( 'NONE', *, *, #365, .F. ) ;
#199 = FACE_OUTER_BOUND ( 'NONE', #90, .T. ) ;
#200 = CARTESIAN_POINT ( 'NONE',  ( 0.000000000000000000, 8.450000000000001066, 0.000000000000000000 ) ) ;
#201 = VERTEX_POINT ( 'NONE', #160 ) ;
#202 = CARTESIAN_POINT ( 'NONE',  ( -4.000000000000000000, 8.450000000000001066, 1.000000000000000000 ) ) ;
#203 = FACE_BOUND ( 'NONE', #406, .T. ) ;
#204 = AXIS2_PLACEMENT_3D ( 'NONE', #357, #523, #514 ) ;
#205 = ORIENTED_EDGE ( 'NONE', *, *, #306, .T. ) ;
#206 = CARTESIAN_POINT ( 'NONE',  ( 2.350000000000000089, 8.450000000000001066, 1.000000000000000222 ) ) ;
#207 = LINE ( 'NONE', #460, #30 ) ;
#208 = VERTEX_POINT ( 'NONE', #672 ) ;
#209 = DIRECTION ( 'NONE',  ( -0.000000000000000000, -1.000000000000000000, -0.000000000000000000 ) ) ;
#210 = DIRECTION ( 'NONE',  ( -1.000000000000000000, -0.000000000000000000, 5.256737805990325036E-16 ) ) ;
#211 = ADVANCED_FACE ( 'NONE', ( #203, #153 ), #627, .F. ) ;
#212 = ORIENTED_EDGE ( 'NONE', *, *, #339, .F. ) ;
#213 = PERSON_AND_ORGANIZATION ( #381, #628 ) ;
#214 = DIRECTION ( 'NONE',  ( 0.000000000000000000, 1.000000000000000000, 0.000000000000000000 ) ) ;
#215 = ORIENTED_EDGE ( 'NONE', *, *, #284, .F. ) ;
#216 = CIRCLE ( 'NONE', #194, 1.650000000000000133 ) ;
#217 = DATE_AND_TIME ( #67, #138 ) ;
#218 = LINE ( 'NONE', #332, #282 ) ;
#219 = EDGE_CURVE ( 'NONE', #3, #80, #285, .T. ) ;
#220 = VERTEX_POINT ( 'NONE', #326 ) ;
#221 = APPROVAL_DATE_TIME ( #419, #615 ) ;
#222 = CARTESIAN_POINT ( 'NONE',  ( 2.350000000000000089, 8.450000000000001066, -2.200000000000000178 ) ) ;
#223 = EDGE_LOOP ( 'NONE', ( #176, #364 ) ) ;
#224 = APPROVAL_ROLE ( '' ) ;
#225 = EDGE_CURVE ( 'NONE', #641, #498, #382, .T. ) ;
#226 = DIRECTION ( 'NONE',  ( -1.000000000000000000, -0.000000000000000000, 5.256737805990325036E-16 ) ) ;
#227 = ORIENTED_EDGE ( 'NONE', *, *, #476, .T. ) ;
#228 = VECTOR ( 'NONE', #232, 1000.000000000000000 ) ;
#229 = ADVANCED_FACE ( 'NONE', ( #636 ), #426, .F. ) ;
#230 = AXIS2_PLACEMENT_3D ( 'NONE', #525, #155, #621 ) ;
#231 = PERSON_AND_ORGANIZATION ( #381, #628 ) ;
#232 = DIRECTION ( 'NONE',  ( -0.000000000000000000, -1.000000000000000000, -0.000000000000000000 ) ) ;
#233 = EDGE_CURVE ( 'NONE', #442, #113, #257, .T. ) ;
#234 = EDGE_LOOP ( 'NONE', ( #637, #373, #70, #116, #6, #125, #238, #254 ) ) ;
#235 = LINE ( 'NONE', #538, #608 ) ;
#236 = EDGE_LOOP ( 'NONE', ( #315, #396, #634, #438 ) ) ;
#237 = PLANE ( 'NONE',  #105 ) ;
#238 = ORIENTED_EDGE ( 'NONE', *, *, #549, .F. ) ;
#239 = LINE ( 'NONE', #449, #291 ) ;
#240 = DIRECTION ( 'NONE',  ( -0.000000000000000000, -1.000000000000000000, -0.000000000000000000 ) ) ;
#241 = DIRECTION ( 'NONE',  ( 0.000000000000000000, -1.000000000000000000, 0.000000000000000000 ) ) ;
#242 = DIRECTION ( 'NONE',  ( -0.000000000000000000, -1.000000000000000000, -0.000000000000000000 ) ) ;
#243 = ADVANCED_FACE ( 'NONE', ( #594 ), #384, .T. ) ;
#244 = PLANE ( 'NONE',  #107 ) ;
#245 = LINE ( 'NONE', #190, #674 ) ;
#246 = CYLINDRICAL_SURFACE ( 'NONE', #142, 2.200000000000000178 ) ;
#247 = VECTOR ( 'NONE', #242, 1000.000000000000000 ) ;
#248 = ORIENTED_EDGE ( 'NONE', *, *, #177, .T. ) ;
#249 = VECTOR ( 'NONE', #250, 1000.000000000000000 ) ;
#250 = DIRECTION ( 'NONE',  ( -0.000000000000000000, -1.000000000000000000, -0.000000000000000000 ) ) ;
#251 = CARTESIAN_POINT ( 'NONE',  ( -2.350000000000000089, 7.250000000000000000, 1.000000000000000222 ) ) ;
#252 = ORIENTED_EDGE ( 'NONE', *, *, #639, .T. ) ;
#253 = LINE ( 'NONE', #354, #149 ) ;
#254 = ORIENTED_EDGE ( 'NONE', *, *, #452, .F. ) ;
#255 = CARTESIAN_POINT ( 'NONE',  ( 0.000000000000000000, 7.250000000000000000, 0.000000000000000000 ) ) ;
#256 = DIRECTION ( 'NONE',  ( 0.000000000000000000, -0.000000000000000000, 1.000000000000000000 ) ) ;
#257 = CIRCLE ( 'NONE', #644, 2.200000000000000178 ) ;
#258 = VERTEX_POINT ( 'NONE', #485 ) ;
#259 = DIRECTION ( 'NONE',  ( 0.000000000000000000, 0.000000000000000000, -1.000000000000000000 ) ) ;
#260 = CC_DESIGN_PERSON_AND_ORGANIZATION_ASSIGNMENT ( #580, #111, ( #399 ) ) ;
#261 = DIRECTION ( 'NONE',  ( -1.000000000000000000, -0.000000000000000000, 1.314184451497581259E-16 ) ) ;
#262 = ORIENTED_EDGE ( 'NONE', *, *, #488, .F. ) ;
#263 = APPROVAL_DATE_TIME ( #174, #344 ) ;
#264 = LINE ( 'NONE', #617, #422 ) ;
#265 = VERTEX_POINT ( 'NONE', #378 ) ;
#266 = PERSON_AND_ORGANIZATION ( #381, #628 ) ;
#267 = EDGE_CURVE ( 'NONE', #201, #80, #112, .T. ) ;
#268 = CARTESIAN_POINT ( 'NONE',  ( -4.000000000000000000, 8.450000000000001066, -1.000000000000000000 ) ) ;
#269 = EDGE_LOOP ( 'NONE', ( #73, #198, #491, #651 ) ) ;
#270 = VECTOR ( 'NONE', #578, 1000.000000000000000 ) ;
#271 = COORDINATED_UNIVERSAL_TIME_OFFSET ( 8, 0, .AHEAD. ) ;
#272 = DIRECTION ( 'NONE',  ( -1.000000000000000000, -0.000000000000000000, -0.000000000000000000 ) ) ;
#273 = ORIENTED_EDGE ( 'NONE', *, *, #532, .T. ) ;
#274 = EDGE_CURVE ( 'NONE', #18, #323, #581, .T. ) ;
#275 = APPROVAL_STATUS ( 'not_yet_approved' ) ;
#276 = CARTESIAN_POINT ( 'NONE',  ( 0.000000000000000000, 0.000000000000000000, 1.650000000000000133 ) ) ;
#277 = ORIENTED_EDGE ( 'NONE', *, *, #187, .T. ) ;
#278 = EDGE_CURVE ( 'NONE', #561, #3, #162, .T. ) ;
#279 = LINE ( 'NONE', #490, #228 ) ;
#280 = ORIENTED_EDGE ( 'NONE', *, *, #96, .T. ) ;
#281 = CC_DESIGN_APPROVAL ( #344, ( #294 ) ) ;
#282 = VECTOR ( 'NONE', #226, 1000.000000000000000 ) ;
#283 = CC_DESIGN_SECURITY_CLASSIFICATION ( #399, ( #366 ) ) ;
#284 = EDGE_CURVE ( 'NONE', #411, #641, #589, .T. ) ;
#285 = LINE ( 'NONE', #596, #86 ) ;
#286 = VERTEX_POINT ( 'NONE', #276 ) ;
#287 = DIRECTION ( 'NONE',  ( 5.256737805990325036E-16, -0.000000000000000000, 1.000000000000000000 ) ) ;
#288 = ORIENTED_EDGE ( 'NONE', *, *, #297, .F. ) ;
#289 = CARTESIAN_POINT ( 'NONE',  ( 0.000000000000000000, 8.450000000000001066, 0.000000000000000000 ) ) ;
#290 = ORIENTED_EDGE ( 'NONE', *, *, #476, .F. ) ;
#291 = VECTOR ( 'NONE', #610, 1000.000000000000000 ) ;
#292 = CARTESIAN_POINT ( 'NONE',  ( -2.350000000000000089, 8.450000000000001066, -1.000000000000000222 ) ) ;
#293 = DIRECTION ( 'NONE',  ( 1.314184451497581259E-16, 0.000000000000000000, -1.000000000000000000 ) ) ;
#294 = PRODUCT_DEFINITION ( 'UNKNOWN', '', #366, #439 ) ;
#295 = CARTESIAN_POINT ( 'NONE',  ( -2.350000000000000089, 7.250000000000000000, 2.200000000000000178 ) ) ;
#296 = CARTESIAN_POINT ( 'NONE',  ( 0.000000000000000000, 7.250000000000000000, -2.200000000000000178 ) ) ;
#297 = EDGE_CURVE ( 'NONE', #3, #113, #279, .T. ) ;
#298 = DIRECTION ( 'NONE',  ( 1.000000000000000000, 0.000000000000000000, -5.256737805990325036E-16 ) ) ;
#299 = VERTEX_POINT ( 'NONE', #127 ) ;
#300 = PLANE ( 'NONE',  #409 ) ;
#301 = AXIS2_PLACEMENT_3D ( 'NONE', #268, #171, #540 ) ;
#302 = EDGE_CURVE ( 'NONE', #641, #299, #218, .T. ) ;
#303 = CARTESIAN_POINT ( 'NONE',  ( 2.350000000000000089, 8.450000000000001066, -2.200000000000000178 ) ) ;
#304 = CARTESIAN_POINT ( 'NONE',  ( -2.350000000000000089, 8.450000000000001066, -1.000000000000000222 ) ) ;
#305 = CARTESIAN_POINT ( 'NONE',  ( 2.350000000000000089, 8.450000000000001066, 2.200000000000000178 ) ) ;
#306 = EDGE_CURVE ( 'NONE', #299, #106, #320, .T. ) ;
#307 = FACE_OUTER_BOUND ( 'NONE', #318, .T. ) ;
#308 = DIRECTION ( 'NONE',  ( 0.000000000000000000, 1.000000000000000000, 0.000000000000000000 ) ) ;
#309 = ORIENTED_EDGE ( 'NONE', *, *, #407, .T. ) ;
#311 = DIRECTION ( 'NONE',  ( -1.000000000000000000, 0.000000000000000000, 8.673617379884035472E-16 ) ) ;
#310 = VECTOR ( 'NONE', #471, 1000.000000000000000 ) ;
#312 = DIRECTION ( 'NONE',  ( -1.000000000000000000, -0.000000000000000000, 1.314184451497581259E-16 ) ) ;
#313 = VECTOR ( 'NONE', #658, 1000.000000000000000 ) ;
#314 = VECTOR ( 'NONE', #316, 1000.000000000000000 ) ;
#315 = ORIENTED_EDGE ( 'NONE', *, *, #470, .T. ) ;
#316 = DIRECTION ( 'NONE',  ( 1.000000000000000000, -0.000000000000000000, -0.000000000000000000 ) ) ;
#317 = DIRECTION ( 'NONE',  ( 1.000000000000000000, -0.000000000000000000, 1.314184451497581259E-16 ) ) ;
#318 = EDGE_LOOP ( 'NONE', ( #536, #477, #290, #141 ) ) ;
#319 = CALENDAR_DATE ( 2024, 24, 7 ) ;
#320 = LINE ( 'NONE', #435, #183 ) ;
#321 = MECHANICAL_CONTEXT ( 'NONE', #499, 'mechanical' ) ;
#322 = CARTESIAN_POINT ( 'NONE',  ( -4.000000000000000000, 8.450000000000001066, -1.000000000000000000 ) ) ;
#323 = VERTEX_POINT ( 'NONE', #24 ) ;
#324 = AXIS2_PLACEMENT_3D ( 'NONE', #29, #287, #298 ) ;
#325 = AXIS2_PLACEMENT_3D ( 'NONE', #289, #241, #134 ) ;
#326 = CARTESIAN_POINT ( 'NONE',  ( -2.350000000000000089, 8.450000000000001066, 2.200000000000000178 ) ) ;
#327 = VERTEX_POINT ( 'NONE', #115 ) ;
#328 = CARTESIAN_POINT ( 'NONE',  ( 4.000000000000000000, 8.450000000000001066, -1.000000000000001110 ) ) ;
#329 = ORIENTED_EDGE ( 'NONE', *, *, #225, .F. ) ;
#330 = CC_DESIGN_DATE_AND_TIME_ASSIGNMENT ( #528, #60, ( #399 ) ) ;
#331 = SECURITY_CLASSIFICATION_LEVEL ( 'unclassified' ) ;
#332 = CARTESIAN_POINT ( 'NONE',  ( 2.350000000000000089, 8.450000000000001066, -1.000000000000000222 ) ) ;
#333 = ORIENTED_EDGE ( 'NONE', *, *, #284, .T. ) ;
#334 = APPROVAL_PERSON_ORGANIZATION ( #11, #40, #374 ) ;
#335 = VECTOR ( 'NONE', #506, 1000.000000000000000 ) ;
#336 = LOCAL_TIME ( 20, 34, 37.00000000000000000, #271 ) ;
#337 = DIRECTION ( 'NONE',  ( 0.000000000000000000, 0.000000000000000000, -1.000000000000000000 ) ) ;
#338 = VERTEX_POINT ( 'NONE', #647 ) ;
#339 = EDGE_CURVE ( 'NONE', #48, #258, #235, .T. ) ;
#340 = FACE_BOUND ( 'NONE', #530, .T. ) ;
#341 = EDGE_LOOP ( 'NONE', ( #154, #277, #484, #595, #448, #473, #150, #659 ) ) ;
#342 = LINE ( 'NONE', #131, #609 ) ;
#343 = ORIENTED_EDGE ( 'NONE', *, *, #46, .F. ) ;
#344 = APPROVAL ( #543, 'UNSPECIFIED' ) ;
#345 = VECTOR ( 'NONE', #529, 1000.000000000000000 ) ;
#346 = DIRECTION ( 'NONE',  ( -0.000000000000000000, -0.000000000000000000, -1.000000000000000000 ) ) ;
#347 = EDGE_CURVE ( 'NONE', #327, #220, #68, .T. ) ;
#348 = PLANE ( 'NONE',  #388 ) ;
#349 = DIRECTION ( 'NONE',  ( -0.000000000000000000, -0.000000000000000000, 1.000000000000000000 ) ) ;
#350 = LINE ( 'NONE', #453, #10 ) ;
#351 = PRODUCT_DEFINITION_SHAPE ( 'NONE', 'NONE',  #294 ) ;
#352 = CC_DESIGN_PERSON_AND_ORGANIZATION_ASSIGNMENT ( #266, #126, ( #663 ) ) ;
#353 = CARTESIAN_POINT ( 'NONE',  ( 0.000000000000000000, 0.000000000000000000, 0.000000000000000000 ) ) ;
#354 = CARTESIAN_POINT ( 'NONE',  ( -2.350000000000000089, 8.450000000000001066, 1.000000000000000222 ) ) ;
#355 = DIRECTION ( 'NONE',  ( 0.000000000000000000, -1.000000000000000000, 0.000000000000000000 ) ) ;
#356 = VECTOR ( 'NONE', #92, 1000.000000000000000 ) ;
#357 = CARTESIAN_POINT ( 'NONE',  ( 0.000000000000000000, 7.250000000000000000, 0.000000000000000000 ) ) ;
#358 = VERTEX_POINT ( 'NONE', #322 ) ;
#359 = CARTESIAN_POINT ( 'NONE',  ( -2.350000000000000089, 7.250000000000000000, -1.000000000000000222 ) ) ;
#360 = DIRECTION ( 'NONE',  ( 1.000000000000000000, -0.000000000000000000, 1.314184451497581259E-16 ) ) ;
#361 = VERTEX_POINT ( 'NONE', #61 ) ;
#362 = CARTESIAN_POINT ( 'NONE',  ( 4.000000000000000000, 8.450000000000001066, -1.000000000000001110 ) ) ;
#363 = CARTESIAN_POINT ( 'NONE',  ( 0.000000000000000000, 0.000000000000000000, -2.200000000000000178 ) ) ;
#364 = ORIENTED_EDGE ( 'NONE', *, *, #233, .F. ) ;
#365 = EDGE_CURVE ( 'NONE', #411, #496, #12, .T. ) ;
#367 = DIRECTION ( 'NONE',  ( 0.000000000000000000, 0.000000000000000000, 1.000000000000000000 ) ) ;
#366 = PRODUCT_DEFINITION_FORMATION_WITH_SPECIFIED_SOURCE ( 'ANY', '', #663, .NOT_KNOWN. ) ;
#368 = DIRECTION ( 'NONE',  ( -1.000000000000000000, 0.000000000000000000, 7.885106708985478187E-16 ) ) ;
#369 = VECTOR ( 'NONE', #101, 1000.000000000000000 ) ;
#370 = ORIENTED_EDGE ( 'NONE', *, *, #170, .F. ) ;
#371 = COORDINATED_UNIVERSAL_TIME_OFFSET ( 8, 0, .AHEAD. ) ;
#372 = DIRECTION ( 'NONE',  ( -0.000000000000000000, -1.000000000000000000, -0.000000000000000000 ) ) ;
#373 = ORIENTED_EDGE ( 'NONE', *, *, #278, .T. ) ;
#374 = APPROVAL_ROLE ( '' ) ;
#375 = CARTESIAN_POINT ( 'NONE',  ( 0.000000000000000000, 7.250000000000000000, 0.000000000000000000 ) ) ;
#376 = ORIENTED_EDGE ( 'NONE', *, *, #197, .F. ) ;
#377 = PERSON_AND_ORGANIZATION_ROLE ( 'design_supplier' ) ;
#378 = CARTESIAN_POINT ( 'NONE',  ( 2.350000000000000089, 7.250000000000000000, 2.200000000000000178 ) ) ;
#379 = ORIENTED_EDGE ( 'NONE', *, *, #78, .F. ) ;
#380 = VECTOR ( 'NONE', #572, 1000.000000000000000 ) ;
#381 = PERSON ( 'UNSPECIFIED', 'UNSPECIFIED', 'UNSPECIFIED', ('UNSPECIFIED'), ('UNSPECIFIED'), ('UNSPECIFIED') ) ;
#382 = LINE ( 'NONE', #21, #664 ) ;
#383 = ORIENTED_EDGE ( 'NONE', *, *, #633, .T. ) ;
#384 = CYLINDRICAL_SURFACE ( 'NONE', #51, 2.200000000000000178 ) ;
#385 = ORIENTED_EDGE ( 'NONE', *, *, #416, .T. ) ;
#386 = DIRECTION ( 'NONE',  ( 0.000000000000000000, 0.000000000000000000, -1.000000000000000000 ) ) ;
#387 = EDGE_LOOP ( 'NONE', ( #429, #66, #158, #553 ) ) ;
#388 = AXIS2_PLACEMENT_3D ( 'NONE', #88, #293, #504 ) ;
#389 = CARTESIAN_POINT ( 'NONE',  ( 0.000000000000000000, 7.250000000000000000, 0.000000000000000000 ) ) ;
#390 = ORIENTED_EDGE ( 'NONE', *, *, #660, .T. ) ;
#391 = ADVANCED_FACE ( 'NONE', ( #65 ), #483, .F. ) ;
#392 = LINE ( 'NONE', #661, #675 ) ;
#393 = CARTESIAN_POINT ( 'NONE',  ( 0.000000000000000000, 0.000000000000000000, 0.000000000000000000 ) ) ;
#394 = EDGE_CURVE ( 'NONE', #561, #265, #550, .T. ) ;
#395 = CARTESIAN_POINT ( 'NONE',  ( 2.350000000000000089, 7.250000000000000000, 1.000000000000000222 ) ) ;
#396 = ORIENTED_EDGE ( 'NONE', *, *, #62, .F. ) ;
#397 = AXIS2_PLACEMENT_3D ( 'NONE', #412, #1, #259 ) ;
#398 = EDGE_CURVE ( 'NONE', #77, #481, #503, .T. ) ;
#399 = SECURITY_CLASSIFICATION ( '', '', #331 ) ;
#400 = CARTESIAN_POINT ( 'NONE',  ( 2.350000000000000089, 8.450000000000001066, 1.000000000000000222 ) ) ;
#401 = CARTESIAN_POINT ( 'NONE',  ( 4.000000000000000000, 7.250000000000000000, -1.000000000000001110 ) ) ;
#402 = CARTESIAN_POINT ( 'NONE',  ( -2.350000000000000089, 8.450000000000001066, 2.200000000000000178 ) ) ;
#403 = CARTESIAN_POINT ( 'NONE',  ( 2.350000000000000089, 8.450000000000001066, -2.200000000000000178 ) ) ;
#404 = LINE ( 'NONE', #613, #118 ) ;
#405 = DIRECTION ( 'NONE',  ( -0.000000000000000000, -1.000000000000000000, -0.000000000000000000 ) ) ;
#406 = EDGE_LOOP ( 'NONE', ( #122, #309 ) ) ;
#407 = EDGE_CURVE ( 'NONE', #18, #286, #445, .T. ) ;
#408 = PLANE ( 'NONE',  #173 ) ;
#409 = AXIS2_PLACEMENT_3D ( 'NONE', #402, #511, #665 ) ;
#410 = LINE ( 'NONE', #468, #534 ) ;
#411 = VERTEX_POINT ( 'NONE', #443 ) ;
#412 = CARTESIAN_POINT ( 'NONE',  ( -4.000000000000000000, 8.450000000000001066, 1.000000000000000000 ) ) ;
#413 = LINE ( 'NONE', #5, #454 ) ;
#414 = EDGE_LOOP ( 'NONE', ( #385, #464, #172, #169 ) ) ;
#415 = DIRECTION ( 'NONE',  ( 0.000000000000000000, 0.000000000000000000, 1.000000000000000000 ) ) ;
#416 = EDGE_CURVE ( 'NONE', #567, #338, #27, .T. ) ;
#417 = PLANE ( 'NONE',  #130 ) ;
#418 = ORIENTED_EDGE ( 'NONE', *, *, #187, .F. ) ;
#420 = LOCAL_TIME ( 20, 34, 37.00000000000000000, #430 ) ;
#419 = DATE_AND_TIME ( #434, #74 ) ;
#421 = LINE ( 'NONE', #157, #42 ) ;
#422 = VECTOR ( 'NONE', #360, 1000.000000000000000 ) ;
#423 = LOCAL_TIME ( 20, 34, 37.00000000000000000, #167 ) ;
#424 = ORIENTED_EDGE ( 'NONE', *, *, #642, .T. ) ;
#425 = PERSON_AND_ORGANIZATION ( #381, #628 ) ;
#426 = PLANE ( 'NONE',  #301 ) ;
#427 = ORIENTED_EDGE ( 'NONE', *, *, #516, .F. ) ;
#428 = DIRECTION ( 'NONE',  ( -1.000000000000000000, 0.000000000000000000, 0.000000000000000000 ) ) ;
#429 = ORIENTED_EDGE ( 'NONE', *, *, #182, .T. ) ;
#430 = COORDINATED_UNIVERSAL_TIME_OFFSET ( 8, 0, .AHEAD. ) ;
#431 = DIRECTION ( 'NONE',  ( -8.673617379884035472E-16, -0.000000000000000000, -1.000000000000000000 ) ) ;
#432 = EDGE_LOOP ( 'NONE', ( #599, #648, #376, #457 ) ) ;
#433 = AXIS2_PLACEMENT_3D ( 'NONE', #54, #50, #368 ) ;
#434 = CALENDAR_DATE ( 2024, 24, 7 ) ;
#435 = CARTESIAN_POINT ( 'NONE',  ( 2.350000000000000089, 8.450000000000001066, -2.200000000000000178 ) ) ;
#436 = CC_DESIGN_PERSON_AND_ORGANIZATION_ASSIGNMENT ( #231, #638, ( #366 ) ) ;
#437 = MANIFOLD_SOLID_BREP ( 'Boss-Extrude2', #548 ) ;
#438 = ORIENTED_EDGE ( 'NONE', *, *, #78, .T. ) ;
#439 = DESIGN_CONTEXT ( 'detailed design', #535, 'design' ) ;
#440 = ADVANCED_FACE ( 'NONE', ( #89 ), #244, .F. ) ;
#441 = CARTESIAN_POINT ( 'NONE',  ( -2.350000000000000089, 8.450000000000001066, 2.200000000000000178 ) ) ;
#442 = VERTEX_POINT ( 'NONE', #189 ) ;
#443 = CARTESIAN_POINT ( 'NONE',  ( 4.000000000000001776, 8.450000000000001066, 0.9999999999999988898 ) ) ;
#444 = ORIENTED_EDGE ( 'NONE', *, *, #365, .T. ) ;
#445 = CIRCLE ( 'NONE', #620, 1.650000000000000133 ) ;
#446 = ADVANCED_FACE ( 'NONE', ( #451, #340 ), #601, .F. ) ;
#447 = CARTESIAN_POINT ( 'NONE',  ( 0.000000000000000000, 7.250000000000000000, 0.000000000000000000 ) ) ;
#448 = ORIENTED_EDGE ( 'NONE', *, *, #129, .F. ) ;
#449 = CARTESIAN_POINT ( 'NONE',  ( 2.350000000000000089, 8.450000000000001066, 2.200000000000000178 ) ) ;
#450 = LINE ( 'NONE', #401, #270 ) ;
#451 = FACE_OUTER_BOUND ( 'NONE', #37, .T. ) ;
#452 = EDGE_CURVE ( 'NONE', #265, #527, #598, .T. ) ;
#453 = CARTESIAN_POINT ( 'NONE',  ( -2.350000000000000089, 8.450000000000001066, -2.200000000000000178 ) ) ;
#454 = VECTOR ( 'NONE', #625, 1000.000000000000000 ) ;
#455 = AXIS2_PLACEMENT_3D ( 'NONE', #353, #513, #415 ) ;
#456 = DIRECTION ( 'NONE',  ( -1.000000000000000000, 0.000000000000000000, 0.000000000000000000 ) ) ;
#457 = ORIENTED_EDGE ( 'NONE', *, *, #649, .T. ) ;
#458 = DIRECTION ( 'NONE',  ( -0.000000000000000000, -0.000000000000000000, 1.000000000000000000 ) ) ;
#459 = ADVANCED_FACE ( 'NONE', ( #560 ), #500, .F. ) ;
#460 = CARTESIAN_POINT ( 'NONE',  ( -4.000000000000000000, 7.250000000000000000, -1.000000000000000000 ) ) ;
#461 = ORIENTED_EDGE ( 'NONE', *, *, #267, .F. ) ;
#462 = DIRECTION ( 'NONE',  ( 0.000000000000000000, 0.000000000000000000, 1.000000000000000000 ) ) ;
#463 = DIRECTION ( 'NONE',  ( 0.000000000000000000, 0.000000000000000000, 1.000000000000000000 ) ) ;
#464 = ORIENTED_EDGE ( 'NONE', *, *, #7, .F. ) ;
#465 = VECTOR ( 'NONE', #431, 1000.000000000000000 ) ;
#466 = CYLINDRICAL_SURFACE ( 'NONE', #455, 1.650000000000000133 ) ;
#467 = CIRCLE ( 'NONE', #230, 1.650000000000000133 ) ;
#468 = CARTESIAN_POINT ( 'NONE',  ( -4.000000000000000000, 8.450000000000001066, -1.000000000000000000 ) ) ;
#469 = ORIENTED_EDGE ( 'NONE', *, *, #163, .T. ) ;
#470 = EDGE_CURVE ( 'NONE', #181, #361, #558, .T. ) ;
#471 = DIRECTION ( 'NONE',  ( -0.000000000000000000, -0.000000000000000000, 1.000000000000000000 ) ) ;
#472 = FACE_OUTER_BOUND ( 'NONE', #31, .T. ) ;
#473 = ORIENTED_EDGE ( 'NONE', *, *, #398, .F. ) ;
#474 =( NAMED_UNIT ( * ) PLANE_ANGLE_UNIT ( ) SI_UNIT ( $, .RADIAN. ) );
#475 = DIRECTION ( 'NONE',  ( 0.000000000000000000, 0.000000000000000000, -1.000000000000000000 ) ) ;
#476 = EDGE_CURVE ( 'NONE', #208, #93, #507, .T. ) ;
#477 = ORIENTED_EDGE ( 'NONE', *, *, #26, .F. ) ;
#478 = CALENDAR_DATE ( 2024, 24, 7 ) ;
#479 = CARTESIAN_POINT ( 'NONE',  ( 2.020667218593132508E-16, 0.000000000000000000, -1.650000000000000133 ) ) ;
#480 = VECTOR ( 'NONE', #17, 1000.000000000000000 ) ;
#481 = VERTEX_POINT ( 'NONE', #605 ) ;
#482 = COORDINATED_UNIVERSAL_TIME_OFFSET ( 8, 0, .AHEAD. ) ;
#483 = PLANE ( 'NONE',  #654 ) ;
#484 = ORIENTED_EDGE ( 'NONE', *, *, #660, .F. ) ;
#485 = CARTESIAN_POINT ( 'NONE',  ( -2.350000000000000089, 7.250000000000000000, -1.000000000000000222 ) ) ;
#486 = ORIENTED_EDGE ( 'NONE', *, *, #91, .F. ) ;
#487 = CALENDAR_DATE ( 2024, 24, 7 ) ;
#488 = EDGE_CURVE ( 'NONE', #208, #265, #239, .T. ) ;
#489 = AXIS2_PLACEMENT_3D ( 'NONE', #136, #85, #462 ) ;
#490 = CARTESIAN_POINT ( 'NONE',  ( 0.000000000000000000, 7.250000000000000000, -2.200000000000000178 ) ) ;
#491 = ORIENTED_EDGE ( 'NONE', *, *, #35, .F. ) ;
#492 = AXIS2_PLACEMENT_3D ( 'NONE', #393, #604, #137 ) ;
#493 = AXIS2_PLACEMENT_3D ( 'NONE', #206, #456, #367 ) ;
#494 = EDGE_CURVE ( 'NONE', #338, #3, #392, .T. ) ;
#495 = DIRECTION ( 'NONE',  ( 0.000000000000000000, 1.000000000000000000, 0.000000000000000000 ) ) ;
#496 = VERTEX_POINT ( 'NONE', #139 ) ;
#497 = FACE_OUTER_BOUND ( 'NONE', #341, .T. ) ;
#498 = VERTEX_POINT ( 'NONE', #650 ) ;
#499 = APPLICATION_CONTEXT ( 'configuration controlled 3d designs of mechanical parts and assemblies' ) ;
#500 = PLANE ( 'NONE',  #324 ) ;
#501 = ORIENTED_EDGE ( 'NONE', *, *, #219, .T. ) ;
#502 = AXIS2_PLACEMENT_3D ( 'NONE', #119, #71, #587 ) ;
#503 = LINE ( 'NONE', #184, #313 ) ;
#504 = DIRECTION ( 'NONE',  ( -1.000000000000000000, 0.000000000000000000, -1.314184451497581259E-16 ) ) ;
#505 = CARTESIAN_POINT ( 'NONE',  ( 0.000000000000000000, 0.000000000000000000, 0.000000000000000000 ) ) ;
#506 = DIRECTION ( 'NONE',  ( -0.000000000000000000, -1.000000000000000000, -0.000000000000000000 ) ) ;
#507 = LINE ( 'NONE', #400, #588 ) ;
#508 = ORIENTED_EDGE ( 'NONE', *, *, #302, .F. ) ;
#509 = AXIS2_PLACEMENT_3D ( 'NONE', #200, #214, #148 ) ;
#510 = ADVANCED_FACE ( 'NONE', ( #193 ), #246, .T. ) ;
#511 = DIRECTION ( 'NONE',  ( 1.000000000000000000, -0.000000000000000000, 0.000000000000000000 ) ) ;
#512 = CARTESIAN_POINT ( 'NONE',  ( 2.694222958124176513E-16, 7.250000000000000000, 2.200000000000000178 ) ) ;
#513 = DIRECTION ( 'NONE',  ( -0.000000000000000000, 1.000000000000000000, -0.000000000000000000 ) ) ;
#514 = DIRECTION ( 'NONE',  ( 0.000000000000000000, 0.000000000000000000, 1.000000000000000000 ) ) ;
#515 = ORIENTED_EDGE ( 'NONE', *, *, #297, .T. ) ;
#516 = EDGE_CURVE ( 'NONE', #220, #208, #342, .T. ) ;
#517 = DIRECTION ( 'NONE',  ( 0.000000000000000000, 0.000000000000000000, 1.000000000000000000 ) ) ;
#518 = LINE ( 'NONE', #98, #369 ) ;
#519 = ADVANCED_FACE ( 'NONE', ( #497 ), #237, .T. ) ;
#520 = AXIS2_PLACEMENT_3D ( 'NONE', #178, #495, #124 ) ;
#521 = DIRECTION ( 'NONE',  ( 1.000000000000000000, -0.000000000000000000, -7.885106708985478187E-16 ) ) ;
#522 = VECTOR ( 'NONE', #209, 1000.000000000000000 ) ;
#523 = DIRECTION ( 'NONE',  ( 0.000000000000000000, 1.000000000000000000, 0.000000000000000000 ) ) ;
#524 = ORIENTED_EDGE ( 'NONE', *, *, #542, .F. ) ;
#525 = CARTESIAN_POINT ( 'NONE',  ( 0.000000000000000000, 8.450000000000001066, 0.000000000000000000 ) ) ;
#526 = FACE_OUTER_BOUND ( 'NONE', #269, .T. ) ;
#527 = VERTEX_POINT ( 'NONE', #603 ) ;
#528 = DATE_AND_TIME ( #319, #423 ) ;
#529 = DIRECTION ( 'NONE',  ( -0.000000000000000000, -0.000000000000000000, 1.000000000000000000 ) ) ;
#530 = EDGE_LOOP ( 'NONE', ( #370, #524 ) ) ;
#531 = DATE_TIME_ROLE ( 'creation_date' ) ;
#532 = EDGE_CURVE ( 'NONE', #113, #442, #631, .T. ) ;
#533 = DIRECTION ( 'NONE',  ( -0.000000000000000000, -1.000000000000000000, -0.000000000000000000 ) ) ;
#534 = VECTOR ( 'NONE', #261, 1000.000000000000000 ) ;
#535 = APPLICATION_CONTEXT ( 'configuration controlled 3d designs of mechanical parts and assemblies' ) ;
#536 = ORIENTED_EDGE ( 'NONE', *, *, #452, .T. ) ;
#537 = PERSON_AND_ORGANIZATION_ROLE ( 'creator' ) ;
#538 = CARTESIAN_POINT ( 'NONE',  ( -2.350000000000000089, 8.450000000000001066, -1.000000000000000222 ) ) ;
#539 = ORIENTED_EDGE ( 'NONE', *, *, #91, .T. ) ;
#540 = DIRECTION ( 'NONE',  ( 1.000000000000000000, 0.000000000000000000, -1.314184451497581259E-16 ) ) ;
#541 = ORIENTED_EDGE ( 'NONE', *, *, #394, .T. ) ;
#542 = EDGE_CURVE ( 'NONE', #323, #161, #467, .T. ) ;
#543 = APPROVAL_STATUS ( 'not_yet_approved' ) ;
#544 = ADVANCED_FACE ( 'NONE', ( #307 ), #576, .F. ) ;
#545 =( GEOMETRIC_REPRESENTATION_CONTEXT ( 3 ) GLOBAL_UNCERTAINTY_ASSIGNED_CONTEXT ( ( #120 ) ) GLOBAL_UNIT_ASSIGNED_CONTEXT ( ( #151, #474, #592 ) ) REPRESENTATION_CONTEXT ( 'NONE', 'WORKASPACE' ) );
#546 = CARTESIAN_POINT ( 'NONE',  ( 0.000000000000000000, 0.000000000000000000, 0.000000000000000000 ) ) ;
#547 = ORIENTED_EDGE ( 'NONE', *, *, #197, .T. ) ;
#548 = CLOSED_SHELL ( 'NONE', ( #52, #510, #243, #211, #655, #673, #446, #519, #607, #56, #593, #133, #544, #156, #583, #459, #391, #611, #440, #229 ) ) ;
#549 = EDGE_CURVE ( 'NONE', #527, #496, #404, .T. ) ;
#550 = LINE ( 'NONE', #552, #356 ) ;
#551 = ORIENTED_EDGE ( 'NONE', *, *, #7, .T. ) ;
#552 = CARTESIAN_POINT ( 'NONE',  ( 2.350000000000000089, 7.250000000000000000, 2.200000000000000178 ) ) ;
#553 = ORIENTED_EDGE ( 'NONE', *, *, #339, .T. ) ;
#554 = DIRECTION ( 'NONE',  ( 0.000000000000000000, 1.000000000000000000, 0.000000000000000000 ) ) ;
#555 = FACE_OUTER_BOUND ( 'NONE', #570, .T. ) ;
#556 = VECTOR ( 'NONE', #58, 1000.000000000000000 ) ;
#557 = AXIS2_PLACEMENT_3D ( 'NONE', #562, #517, #53 ) ;
#558 = LINE ( 'NONE', #295, #75 ) ;
#559 = ORIENTED_EDGE ( 'NONE', *, *, #192, .F. ) ;
#560 = FACE_OUTER_BOUND ( 'NONE', #646, .T. ) ;
#561 = VERTEX_POINT ( 'NONE', #671 ) ;
#562 = CARTESIAN_POINT ( 'NONE',  ( -2.350000000000000089, 8.450000000000001066, -2.200000000000000178 ) ) ;
#563 = CARTESIAN_POINT ( 'NONE',  ( -2.350000000000000089, 8.450000000000001066, 1.000000000000000222 ) ) ;
#564 = VECTOR ( 'NONE', #533, 1000.000000000000000 ) ;
#565 = CARTESIAN_POINT ( 'NONE',  ( -4.000000000000000000, 8.450000000000001066, -1.000000000000000000 ) ) ;
#566 = LINE ( 'NONE', #512, #556 ) ;
#567 = VERTEX_POINT ( 'NONE', #108 ) ;
#568 = DIRECTION ( 'NONE',  ( 8.673617379884035472E-16, 0.000000000000000000, 1.000000000000000000 ) ) ;
#569 = CARTESIAN_POINT ( 'NONE',  ( 0.000000000000000000, 0.000000000000000000, 0.000000000000000000 ) ) ;
#570 = EDGE_LOOP ( 'NONE', ( #623, #379, #486, #252 ) ) ;
#571 = CARTESIAN_POINT ( 'NONE',  ( -4.000000000000000000, 8.450000000000001066, 1.000000000000000000 ) ) ;
#572 = DIRECTION ( 'NONE',  ( -0.000000000000000000, -1.000000000000000000, -0.000000000000000000 ) ) ;
#573 = ORIENTED_EDGE ( 'NONE', *, *, #274, .T. ) ;
#574 = AXIS2_PLACEMENT_3D ( 'NONE', #362, #311, #568 ) ;
#575 = VECTOR ( 'NONE', #38, 1000.000000000000000 ) ;
#576 = PLANE ( 'NONE',  #493 ) ;
#577 = CC_DESIGN_APPROVAL ( #615, ( #366 ) ) ;
#578 = DIRECTION ( 'NONE',  ( -8.673617379884035472E-16, -0.000000000000000000, -1.000000000000000000 ) ) ;
#579 = ORIENTED_EDGE ( 'NONE', *, *, #87, .F. ) ;
#580 = PERSON_AND_ORGANIZATION ( #381, #628 ) ;
#581 = LINE ( 'NONE', #479, #480 ) ;
#582 = ORIENTED_EDGE ( 'NONE', *, *, #87, .T. ) ;
#583 = ADVANCED_FACE ( 'NONE', ( #94 ), #57, .F. ) ;
#584 = APPROVAL_DATE_TIME ( #217, #40 ) ;
#585 = CARTESIAN_POINT ( 'NONE',  ( -2.350000000000000089, 8.450000000000001066, -2.200000000000000178 ) ) ;
#586 = ORIENTED_EDGE ( 'NONE', *, *, #35, .T. ) ;
#587 = DIRECTION ( 'NONE',  ( 1.000000000000000000, 0.000000000000000000, 0.000000000000000000 ) ) ;
#588 = VECTOR ( 'NONE', #186, 1000.000000000000000 ) ;
#589 = LINE ( 'NONE', #328, #465 ) ;
#590 = PRODUCT_RELATED_PRODUCT_CATEGORY ( 'detail', '', ( #663 ) ) ;
#591 = ORIENTED_EDGE ( 'NONE', *, *, #516, .T. ) ;
#592 =( NAMED_UNIT ( * ) SI_UNIT ( $, .STERADIAN. ) SOLID_ANGLE_UNIT ( ) );
#593 = ADVANCED_FACE ( 'NONE', ( #626 ), #300, .F. ) ;
#594 = FACE_OUTER_BOUND ( 'NONE', #23, .T. ) ;
#595 = ORIENTED_EDGE ( 'NONE', *, *, #470, .F. ) ;
#596 = CARTESIAN_POINT ( 'NONE',  ( -2.350000000000000089, 7.250000000000000000, -2.200000000000000178 ) ) ;
#597 = VERTEX_POINT ( 'NONE', #571 ) ;
#598 = LINE ( 'NONE', #395, #575 ) ;
#599 = ORIENTED_EDGE ( 'NONE', *, *, #398, .T. ) ;
#600 = CIRCLE ( 'NONE', #204, 2.200000000000000178 ) ;
#601 = PLANE ( 'NONE',  #325 ) ;
#602 = ORIENTED_EDGE ( 'NONE', *, *, #225, .T. ) ;
#603 = CARTESIAN_POINT ( 'NONE',  ( 2.350000000000000089, 7.250000000000000000, 1.000000000000000222 ) ) ;
#604 = DIRECTION ( 'NONE',  ( -0.000000000000000000, 1.000000000000000000, -0.000000000000000000 ) ) ;
#605 = CARTESIAN_POINT ( 'NONE',  ( -4.000000000000000000, 7.250000000000000000, 1.000000000000000000 ) ) ;
#606 = ORIENTED_EDGE ( 'NONE', *, *, #170, .T. ) ;
#607 = ADVANCED_FACE ( 'NONE', ( #44 ), #103, .F. ) ;
#608 = VECTOR ( 'NONE', #165, 1000.000000000000000 ) ;
#609 = VECTOR ( 'NONE', #79, 1000.000000000000000 ) ;
#610 = DIRECTION ( 'NONE',  ( -0.000000000000000000, -1.000000000000000000, -0.000000000000000000 ) ) ;
#611 = ADVANCED_FACE ( 'NONE', ( #145 ), #196, .F. ) ;
#612 = ORIENTED_EDGE ( 'NONE', *, *, #494, .T. ) ;
#613 = CARTESIAN_POINT ( 'NONE',  ( 4.000000000000001776, 7.250000000000000000, 0.9999999999999988898 ) ) ;
#614 = CARTESIAN_POINT ( 'NONE',  ( 2.020667218593132508E-16, 0.000000000000000000, -1.650000000000000133 ) ) ;
#615 = APPROVAL ( #643, 'UNSPECIFIED' ) ;
#616 = CARTESIAN_POINT ( 'NONE',  ( 2.350000000000000089, 7.250000000000000000, 2.200000000000000178 ) ) ;
#617 = CARTESIAN_POINT ( 'NONE',  ( -2.350000000000000089, 7.250000000000000000, 1.000000000000000222 ) ) ;
#618 = EDGE_LOOP ( 'NONE', ( #128, #573, #59, #579 ) ) ;
#619 = AXIS2_PLACEMENT_3D ( 'NONE', #569, #308, #256 ) ;
#620 = AXIS2_PLACEMENT_3D ( 'NONE', #505, #554, #36 ) ;
#621 = DIRECTION ( 'NONE',  ( 0.000000000000000000, 0.000000000000000000, 1.000000000000000000 ) ) ;
#622 = CARTESIAN_POINT ( 'NONE',  ( 0.000000000000000000, 8.450000000000001066, 1.650000000000000133 ) ) ;
#623 = ORIENTED_EDGE ( 'NONE', *, *, #129, .T. ) ;
#624 = LINE ( 'NONE', #202, #249 ) ;
#625 = DIRECTION ( 'NONE',  ( -0.000000000000000000, -0.000000000000000000, 1.000000000000000000 ) ) ;
#626 = FACE_OUTER_BOUND ( 'NONE', #236, .T. ) ;
#627 = PLANE ( 'NONE',  #619 ) ;
#628 = ORGANIZATION ( 'UNSPECIFIED', 'UNSPECIFIED', '' ) ;
#629 = VECTOR ( 'NONE', #405, 1000.000000000000000 ) ;
#630 = DATE_AND_TIME ( #478, #336 ) ;
#631 = CIRCLE ( 'NONE', #489, 2.200000000000000178 ) ;
#632 = PLANE ( 'NONE',  #433 ) ;
#633 = EDGE_CURVE ( 'NONE', #201, #48, #100, .T. ) ;
#634 = ORIENTED_EDGE ( 'NONE', *, *, #347, .F. ) ;
#635 = PERSON_AND_ORGANIZATION ( #381, #628 ) ;
#636 = FACE_OUTER_BOUND ( 'NONE', #387, .T. ) ;
#637 = ORIENTED_EDGE ( 'NONE', *, *, #394, .F. ) ;
#638 = PERSON_AND_ORGANIZATION_ROLE ( 'creator' ) ;
#639 = EDGE_CURVE ( 'NONE', #597, #481, #624, .T. ) ;
#640 = DIRECTION ( 'NONE',  ( 0.000000000000000000, 0.000000000000000000, 1.000000000000000000 ) ) ;
#641 = VERTEX_POINT ( 'NONE', #49 ) ;
#642 = EDGE_CURVE ( 'NONE', #80, #258, #4, .T. ) ;
#643 = APPROVAL_STATUS ( 'not_yet_approved' ) ;
#644 = AXIS2_PLACEMENT_3D ( 'NONE', #546, #76, #15 ) ;
#645 = DIRECTION ( 'NONE',  ( -0.000000000000000000, -1.000000000000000000, -0.000000000000000000 ) ) ;
#646 = EDGE_LOOP ( 'NONE', ( #280, #132, #508, #602 ) ) ;
#647 = CARTESIAN_POINT ( 'NONE',  ( 2.350000000000000089, 7.250000000000000000, -2.200000000000000178 ) ) ;
#648 = ORIENTED_EDGE ( 'NONE', *, *, #639, .F. ) ;
#649 = EDGE_CURVE ( 'NONE', #358, #77, #668, .T. ) ;
#650 = CARTESIAN_POINT ( 'NONE',  ( 4.000000000000000000, 7.250000000000000000, -1.000000000000001110 ) ) ;
#651 = ORIENTED_EDGE ( 'NONE', *, *, #26, .T. ) ;
#652 = DIRECTION ( 'NONE',  ( 0.000000000000000000, -1.000000000000000000, 0.000000000000000000 ) ) ;
#653 = FACE_OUTER_BOUND ( 'NONE', #618, .T. ) ;
#654 = AXIS2_PLACEMENT_3D ( 'NONE', #222, #428, #640 ) ;
#655 = ADVANCED_FACE ( 'NONE', ( #199 ), #466, .F. ) ;
#656 = DIRECTION ( 'NONE',  ( 0.000000000000000000, -0.000000000000000000, -1.000000000000000000 ) ) ;
#657 = DIRECTION ( 'NONE',  ( 1.000000000000000000, -0.000000000000000000, -7.885106708985478187E-16 ) ) ;
#658 = DIRECTION ( 'NONE',  ( -0.000000000000000000, -0.000000000000000000, 1.000000000000000000 ) ) ;
#659 = ORIENTED_EDGE ( 'NONE', *, *, #642, .F. ) ;
#660 = EDGE_CURVE ( 'NONE', #361, #561, #159, .T. ) ;
#661 = CARTESIAN_POINT ( 'NONE',  ( -2.350000000000000089, 7.250000000000000000, -2.200000000000000178 ) ) ;
#662 = CYLINDRICAL_SURFACE ( 'NONE', #492, 1.650000000000000133 ) ;
#663 = PRODUCT ( 'Type C Male Wire Tube', 'Type C Male Wire Tube', '', ( #321 ) ) ;
#664 = VECTOR ( 'NONE', #645, 1000.000000000000000 ) ;
#665 = DIRECTION ( 'NONE',  ( 0.000000000000000000, 0.000000000000000000, -1.000000000000000000 ) ) ;
#666 = EDGE_LOOP ( 'NONE', ( #179, #329, #215, #444 ) ) ;
#667 = CC_DESIGN_PERSON_AND_ORGANIZATION_ASSIGNMENT ( #164, #377, ( #366 ) ) ;
#668 = LINE ( 'NONE', #565, #522 ) ;
#669 = LINE ( 'NONE', #563, #629 ) ;
#670 = EDGE_LOOP ( 'NONE', ( #424, #212, #25, #185 ) ) ;
#671 = CARTESIAN_POINT ( 'NONE',  ( 0.000000000000000000, 7.250000000000000000, 2.200000000000000178 ) ) ;
#672 = CARTESIAN_POINT ( 'NONE',  ( 2.350000000000000089, 8.450000000000001066, 2.200000000000000178 ) ) ;
#673 = ADVANCED_FACE ( 'NONE', ( #147 ), #408, .T. ) ;
#674 = VECTOR ( 'NONE', #657, 1000.000000000000000 ) ;
#675 = VECTOR ( 'NONE', #143, 1000.000000000000000 ) ;
ENDSEC;
END-ISO-10303-21;
