ISO-10303-21;
HEADER;
FILE_DESCRIPTION (( 'STEP AP203' ),
    '1' );
FILE_NAME ('Type C Male Top Cover.STEP',
    '2024-07-24T12:34:46',
    ( '' ),
    ( '' ),
    'SwSTEP 2.0',
    'SolidWorks 2022',
    '' );
FILE_SCHEMA (( 'CONFIG_CONTROL_DESIGN' ));
ENDSEC;

DATA;
#1 = COORDINATED_UNIVERSAL_TIME_OFFSET ( 8, 0, .AHEAD. ) ;
#2 = CARTESIAN_POINT ( 'NONE',  ( 4.068357842954480219, 0.000000000000000000, -1.500000000000000000 ) ) ;
#3 = DIRECTION ( 'NONE',  ( 0.000000000000000000, 1.000000000000000000, 0.000000000000000000 ) ) ;
#4 = PRODUCT_DEFINITION ( 'UNKNOWN', '', #442, #419 ) ;
#5 = APPROVAL_ROLE ( '' ) ;
#6 = DIRECTION ( 'NONE',  ( 0.000000000000000000, 0.000000000000000000, 1.000000000000000000 ) ) ;
#7 = APPROVAL_PERSON_ORGANIZATION ( #261, #377, #45 ) ;
#8 = CIRCLE ( 'NONE', #358, 2.225000000000000089 ) ;
#9 = CALENDAR_DATE ( 2024, 24, 7 ) ;
#10 = DIRECTION ( 'NONE',  ( 1.000000000000000000, 0.000000000000000000, 0.000000000000000000 ) ) ;
#11 = ORIENTED_EDGE ( 'NONE', *, *, #248, .T. ) ;
#12 = DATE_AND_TIME ( #9, #110 ) ;
#13 = CYLINDRICAL_SURFACE ( 'NONE', #435, 1.249999999999999778 ) ;
#14 = ORIENTED_EDGE ( 'NONE', *, *, #141, .T. ) ;
#15 = EDGE_CURVE ( 'NONE', #63, #397, #206, .T. ) ;
#16 = APPLICATION_CONTEXT ( 'configuration controlled 3d designs of mechanical parts and assemblies' ) ;
#17 = CARTESIAN_POINT ( 'NONE',  ( -2.425000000000001155, 2.000000000000000000, -2.225000000000000089 ) ) ;
#18 = ORIENTED_EDGE ( 'NONE', *, *, #15, .T. ) ;
#19 = AXIS2_PLACEMENT_3D ( 'NONE', #79, #238, #200 ) ;
#20 = CIRCLE ( 'NONE', #485, 2.225000000000000089 ) ;
#21 = CARTESIAN_POINT ( 'NONE',  ( 2.425000000000001155, 2.000000000000000000, -2.225000000000000089 ) ) ;
#22 = ORIENTED_EDGE ( 'NONE', *, *, #70, .F. ) ;
#23 = ORIENTED_EDGE ( 'NONE', *, *, #138, .T. ) ;
#24 = COORDINATED_UNIVERSAL_TIME_OFFSET ( 8, 0, .AHEAD. ) ;
#25 = ORIENTED_EDGE ( 'NONE', *, *, #271, .F. ) ;
#26 = DATE_AND_TIME ( #307, #366 ) ;
#27 = VECTOR ( 'NONE', #284, 1000.000000000000000 ) ;
#28 = LINE ( 'NONE', #40, #67 ) ;
#29 = VECTOR ( 'NONE', #98, 1000.000000000000000 ) ;
#30 = ORIENTED_EDGE ( 'NONE', *, *, #207, .F. ) ;
#31 = ORIENTED_EDGE ( 'NONE', *, *, #514, .F. ) ;
#32 = APPROVAL ( #364, 'UNSPECIFIED' ) ;
#33 = EDGE_CURVE ( 'NONE', #105, #199, #315, .T. ) ;
#34 = LINE ( 'NONE', #390, #227 ) ;
#35 = CARTESIAN_POINT ( 'NONE',  ( 2.425000000000001155, 1.000000000000000000, 0.000000000000000000 ) ) ;
#36 = ORGANIZATION ( 'UNSPECIFIED', 'UNSPECIFIED', '' ) ;
#37 = DIRECTION ( 'NONE',  ( 0.000000000000000000, -0.000000000000000000, 1.000000000000000000 ) ) ;
#38 = CARTESIAN_POINT ( 'NONE',  ( -4.650000000000001243, 0.000000000000000000, -1.500000000000000000 ) ) ;
#39 = AXIS2_PLACEMENT_3D ( 'NONE', #406, #258, #255 ) ;
#40 = CARTESIAN_POINT ( 'NONE',  ( -2.425000000000001155, 2.000000000000000000, -2.225000000000000089 ) ) ;
#41 = DIRECTION ( 'NONE',  ( -1.000000000000000000, 0.000000000000000000, -0.000000000000000000 ) ) ;
#42 = ADVANCED_FACE ( 'NONE', ( #46 ), #516, .F. ) ;
#43 = ORIENTED_EDGE ( 'NONE', *, *, #157, .F. ) ;
#44 = FACE_OUTER_BOUND ( 'NONE', #276, .T. ) ;
#45 = APPROVAL_ROLE ( '' ) ;
#46 = FACE_OUTER_BOUND ( 'NONE', #176, .T. ) ;
#47 = CIRCLE ( 'NONE', #146, 2.225000000000000089 ) ;
#48 = DIRECTION ( 'NONE',  ( 0.000000000000000000, 0.000000000000000000, 1.000000000000000000 ) ) ;
#49 = CARTESIAN_POINT ( 'NONE',  ( -2.425000000000001155, 2.000000000000000000, 0.000000000000000000 ) ) ;
#50 = CC_DESIGN_PERSON_AND_ORGANIZATION_ASSIGNMENT ( #487, #367, ( #4 ) ) ;
#51 = PERSON_AND_ORGANIZATION ( #178, #36 ) ;
#52 = DIRECTION ( 'NONE',  ( -0.000000000000000000, 1.000000000000000000, -0.000000000000000000 ) ) ;
#53 = ORIENTED_EDGE ( 'NONE', *, *, #514, .T. ) ;
#54 = CARTESIAN_POINT ( 'NONE',  ( 2.425000000000001155, 0.000000000000000000, 2.225000000000000089 ) ) ;
#55 = FACE_OUTER_BOUND ( 'NONE', #289, .T. ) ;
#56 = AXIS2_PLACEMENT_3D ( 'NONE', #38, #447, #210 ) ;
#57 = DIRECTION ( 'NONE',  ( -1.000000000000000000, -0.000000000000000000, -0.000000000000000000 ) ) ;
#58 = DIRECTION ( 'NONE',  ( 0.000000000000000000, 0.000000000000000000, 1.000000000000000000 ) ) ;
#59 = ORIENTED_EDGE ( 'NONE', *, *, #230, .F. ) ;
#60 = ADVANCED_FACE ( 'NONE', ( #169 ), #123, .F. ) ;
#61 = PERSON_AND_ORGANIZATION ( #178, #36 ) ;
#62 = DIRECTION ( 'NONE',  ( -0.000000000000000000, -1.000000000000000000, -0.000000000000000000 ) ) ;
#63 = VERTEX_POINT ( 'NONE', #513 ) ;
#64 = CALENDAR_DATE ( 2024, 24, 7 ) ;
#65 = DIRECTION ( 'NONE',  ( 0.000000000000000000, 0.000000000000000000, 1.000000000000000000 ) ) ;
#66 = EDGE_LOOP ( 'NONE', ( #500, #183, #464, #43 ) ) ;
#67 = VECTOR ( 'NONE', #242, 1000.000000000000000 ) ;
#68 = DATE_TIME_ROLE ( 'classification_date' ) ;
#69 = ORIENTED_EDGE ( 'NONE', *, *, #335, .F. ) ;
#70 = EDGE_CURVE ( 'NONE', #462, #186, #355, .T. ) ;
#71 = APPROVAL_STATUS ( 'not_yet_approved' ) ;
#72 = ORIENTED_EDGE ( 'NONE', *, *, #501, .F. ) ;
#73 = COORDINATED_UNIVERSAL_TIME_OFFSET ( 8, 0, .AHEAD. ) ;
#74 = CARTESIAN_POINT ( 'NONE',  ( -2.425000000000001155, 2.000000000000000000, 2.225000000000000089 ) ) ;
#75 = VERTEX_POINT ( 'NONE', #437 ) ;
#76 = VECTOR ( 'NONE', #82, 1000.000000000000000 ) ;
#77 = AXIS2_PLACEMENT_3D ( 'NONE', #81, #198, #352 ) ;
#78 = EDGE_LOOP ( 'NONE', ( #158, #263, #388, #237 ) ) ;
#79 = CARTESIAN_POINT ( 'NONE',  ( -2.849999999999999201, 0.000000000000000000, -1.249999999999999778 ) ) ;
#80 = LINE ( 'NONE', #239, #208 ) ;
#81 = CARTESIAN_POINT ( 'NONE',  ( -2.425000000000001155, 1.000000000000000000, 0.000000000000000000 ) ) ;
#82 = DIRECTION ( 'NONE',  ( 1.000000000000000000, 0.000000000000000000, 0.000000000000000000 ) ) ;
#83 = CC_DESIGN_APPROVAL ( #461, ( #174 ) ) ;
#84 = EDGE_CURVE ( 'NONE', #498, #101, #8, .T. ) ;
#85 = LINE ( 'NONE', #322, #134 ) ;
#86 = CARTESIAN_POINT ( 'NONE',  ( -4.650000000000001243, 0.000000000000000000, 1.500000000000000000 ) ) ;
#87 = DIRECTION ( 'NONE',  ( 1.000000000000000000, 0.000000000000000000, -0.000000000000000000 ) ) ;
#88 = DIRECTION ( 'NONE',  ( 0.000000000000000000, 0.000000000000000000, 1.000000000000000000 ) ) ;
#89 = ORIENTED_EDGE ( 'NONE', *, *, #95, .T. ) ;
#90 = CARTESIAN_POINT ( 'NONE',  ( -2.425000000000001155, 0.000000000000000000, 0.000000000000000000 ) ) ;
#91 = FACE_BOUND ( 'NONE', #306, .T. ) ;
#92 = DIRECTION ( 'NONE',  ( 0.000000000000000000, 0.000000000000000000, 1.000000000000000000 ) ) ;
#93 = CARTESIAN_POINT ( 'NONE',  ( -2.425000000000001155, 0.000000000000000000, 0.000000000000000000 ) ) ;
#94 = CIRCLE ( 'NONE', #251, 2.225000000000000089 ) ;
#95 = EDGE_CURVE ( 'NONE', #338, #116, #512, .T. ) ;
#96 = DIRECTION ( 'NONE',  ( 0.000000000000000000, 0.000000000000000000, 1.000000000000000000 ) ) ;
#97 = UNCERTAINTY_MEASURE_WITH_UNIT (LENGTH_MEASURE( 1.000000000000000082E-05 ), #491, 'distance_accuracy_value', 'NONE');
#98 = DIRECTION ( 'NONE',  ( 1.000000000000000000, -0.000000000000000000, -0.000000000000000000 ) ) ;
#99 = CARTESIAN_POINT ( 'NONE',  ( -2.849999999999999201, 1.000000000000000000, -1.249999999999999778 ) ) ;
#100 = CARTESIAN_POINT ( 'NONE',  ( 2.849999999999999201, 1.000000000000000000, 0.000000000000000000 ) ) ;
#101 = VERTEX_POINT ( 'NONE', #320 ) ;
#102 = AXIS2_PLACEMENT_3D ( 'NONE', #456, #407, #133 ) ;
#103 = MECHANICAL_CONTEXT ( 'NONE', #424, 'mechanical' ) ;
#104 = DIRECTION ( 'NONE',  ( 0.000000000000000000, 0.000000000000000000, -1.000000000000000000 ) ) ;
#105 = VERTEX_POINT ( 'NONE', #439 ) ;
#106 = CARTESIAN_POINT ( 'NONE',  ( -2.849999999999999201, 1.000000000000000000, 0.000000000000000000 ) ) ;
#107 = ORIENTED_EDGE ( 'NONE', *, *, #240, .T. ) ;
#108 = PERSON_AND_ORGANIZATION_ROLE ( 'classification_officer' ) ;
#109 = ORIENTED_EDGE ( 'NONE', *, *, #463, .F. ) ;
#110 = LOCAL_TIME ( 20, 34, 46.00000000000000000, #143 ) ;
#111 = VECTOR ( 'NONE', #443, 1000.000000000000000 ) ;
#112 = CARTESIAN_POINT ( 'NONE',  ( -2.849999999999999201, 2.000000000000000000, 0.000000000000000000 ) ) ;
#113 = MANIFOLD_SOLID_BREP ( 'Cut-Extrude2', #260 ) ;
#114 = ORIENTED_EDGE ( 'NONE', *, *, #157, .T. ) ;
#115 = DIRECTION ( 'NONE',  ( 0.000000000000000000, 0.000000000000000000, 1.000000000000000000 ) ) ;
#116 = VERTEX_POINT ( 'NONE', #325 ) ;
#117 = EDGE_CURVE ( 'NONE', #353, #434, #392, .T. ) ;
#118 = ORIENTED_EDGE ( 'NONE', *, *, #448, .F. ) ;
#119 =( GEOMETRIC_REPRESENTATION_CONTEXT ( 3 ) GLOBAL_UNCERTAINTY_ASSIGNED_CONTEXT ( ( #97 ) ) GLOBAL_UNIT_ASSIGNED_CONTEXT ( ( #491, #409, #171 ) ) REPRESENTATION_CONTEXT ( 'NONE', 'WORKASPACE' ) );
#120 = CARTESIAN_POINT ( 'NONE',  ( 2.849999999999999201, 1.000000000000000000, 1.249999999999999778 ) ) ;
#121 = DIRECTION ( 'NONE',  ( -0.000000000000000000, 1.000000000000000000, -0.000000000000000000 ) ) ;
#122 = CARTESIAN_POINT ( 'NONE',  ( -2.425000000000001155, 0.000000000000000000, 2.225000000000000089 ) ) ;
#123 = PLANE ( 'NONE',  #330 ) ;
#124 = PLANE ( 'NONE',  #225 ) ;
#125 = ORIENTED_EDGE ( 'NONE', *, *, #15, .F. ) ;
#126 = PLANE ( 'NONE',  #209 ) ;
#127 = EDGE_LOOP ( 'NONE', ( #22, #466, #30, #430 ) ) ;
#128 = CARTESIAN_POINT ( 'NONE',  ( -2.849999999999999201, 0.000000000000000000, -1.249999999999999778 ) ) ;
#129 = EDGE_CURVE ( 'NONE', #462, #75, #80, .T. ) ;
#130 = CALENDAR_DATE ( 2024, 24, 7 ) ;
#131 = PLANE ( 'NONE',  #329 ) ;
#132 = LINE ( 'NONE', #336, #270 ) ;
#133 = DIRECTION ( 'NONE',  ( 0.000000000000000000, -0.000000000000000000, 1.000000000000000000 ) ) ;
#134 = VECTOR ( 'NONE', #356, 1000.000000000000000 ) ;
#135 = DIRECTION ( 'NONE',  ( 1.000000000000000000, -0.000000000000000000, -0.000000000000000000 ) ) ;
#136 = LINE ( 'NONE', #217, #321 ) ;
#137 = EDGE_LOOP ( 'NONE', ( #215, #379, #418, #118 ) ) ;
#138 = EDGE_CURVE ( 'NONE', #142, #309, #396, .T. ) ;
#139 = PERSON_AND_ORGANIZATION_ROLE ( 'design_owner' ) ;
#140 = DIRECTION ( 'NONE',  ( 0.000000000000000000, 0.000000000000000000, 1.000000000000000000 ) ) ;
#141 = EDGE_CURVE ( 'NONE', #186, #219, #444, .T. ) ;
#142 = VERTEX_POINT ( 'NONE', #399 ) ;
#143 = COORDINATED_UNIVERSAL_TIME_OFFSET ( 8, 0, .AHEAD. ) ;
#144 = DIRECTION ( 'NONE',  ( 0.000000000000000000, 1.000000000000000000, 0.000000000000000000 ) ) ;
#145 = EDGE_LOOP ( 'NONE', ( #332, #231, #189, #226 ) ) ;
#146 = AXIS2_PLACEMENT_3D ( 'NONE', #410, #482, #140 ) ;
#147 = SECURITY_CLASSIFICATION_LEVEL ( 'unclassified' ) ;
#148 = ORIENTED_EDGE ( 'NONE', *, *, #346, .T. ) ;
#149 = ADVANCED_FACE ( 'NONE', ( #44, #91 ), #250, .T. ) ;
#150 = DATE_AND_TIME ( #497, #154 ) ;
#151 = VERTEX_POINT ( 'NONE', #2 ) ;
#152 = PERSON_AND_ORGANIZATION ( #178, #36 ) ;
#153 = ORIENTED_EDGE ( 'NONE', *, *, #312, .F. ) ;
#154 = LOCAL_TIME ( 20, 34, 46.00000000000000000, #24 ) ;
#155 = DIRECTION ( 'NONE',  ( 0.000000000000000000, 0.000000000000000000, 1.000000000000000000 ) ) ;
#156 = ORIENTED_EDGE ( 'NONE', *, *, #505, .F. ) ;
#157 = EDGE_CURVE ( 'NONE', #269, #353, #172, .T. ) ;
#158 = ORIENTED_EDGE ( 'NONE', *, *, #354, .T. ) ;
#159 = DIRECTION ( 'NONE',  ( 0.000000000000000000, -0.000000000000000000, 1.000000000000000000 ) ) ;
#160 = EDGE_LOOP ( 'NONE', ( #460, #72, #25, #109 ) ) ;
#161 = VECTOR ( 'NONE', #499, 1000.000000000000000 ) ;
#162 = APPROVAL_PERSON_ORGANIZATION ( #51, #32, #5 ) ;
#163 = DIRECTION ( 'NONE',  ( 0.000000000000000000, -0.000000000000000000, 1.000000000000000000 ) ) ;
#164 = DIRECTION ( 'NONE',  ( 1.000000000000000000, 0.000000000000000000, 0.000000000000000000 ) ) ;
#165 = ORIENTED_EDGE ( 'NONE', *, *, #463, .T. ) ;
#166 = FACE_OUTER_BOUND ( 'NONE', #78, .T. ) ;
#167 = CARTESIAN_POINT ( 'NONE',  ( -2.849999999999999201, 1.000000000000000000, -1.249999999999999778 ) ) ;
#168 = AXIS2_PLACEMENT_3D ( 'NONE', #100, #291, #96 ) ;
#169 = FACE_OUTER_BOUND ( 'NONE', #145, .T. ) ;
#170 = ADVANCED_FACE ( 'NONE', ( #350 ), #296, .F. ) ;
#171 =( NAMED_UNIT ( * ) SI_UNIT ( $, .STERADIAN. ) SOLID_ANGLE_UNIT ( ) );
#172 = LINE ( 'NONE', #389, #495 ) ;
#173 = CARTESIAN_POINT ( 'NONE',  ( 2.849999999999999201, 0.000000000000000000, 1.249999999999999778 ) ) ;
#174 = SECURITY_CLASSIFICATION ( '', '', #147 ) ;
#175 = DIRECTION ( 'NONE',  ( 0.000000000000000000, 1.000000000000000000, 0.000000000000000000 ) ) ;
#176 = EDGE_LOOP ( 'NONE', ( #273, #69, #400, #125 ) ) ;
#177 = EDGE_CURVE ( 'NONE', #199, #338, #426, .T. ) ;
#178 = PERSON ( 'UNSPECIFIED', 'UNSPECIFIED', 'UNSPECIFIED', ('UNSPECIFIED'), ('UNSPECIFIED'), ('UNSPECIFIED') ) ;
#179 = LINE ( 'NONE', #454, #349 ) ;
#180 = PRODUCT_DEFINITION_SHAPE ( 'NONE', 'NONE',  #4 ) ;
#181 = CC_DESIGN_DATE_AND_TIME_ASSIGNMENT ( #267, #68, ( #174 ) ) ;
#182 = DIRECTION ( 'NONE',  ( 1.000000000000000000, 0.000000000000000000, 0.000000000000000000 ) ) ;
#183 = ORIENTED_EDGE ( 'NONE', *, *, #422, .F. ) ;
#184 = DATE_AND_TIME ( #130, #452 ) ;
#185 = PLANE ( 'NONE',  #313 ) ;
#186 = VERTEX_POINT ( 'NONE', #99 ) ;
#187 = CARTESIAN_POINT ( 'NONE',  ( 2.425000000000001155, 2.000000000000000000, 2.225000000000000089 ) ) ;
#188 = AXIS2_PLACEMENT_3D ( 'NONE', #403, #361, #163 ) ;
#189 = ORIENTED_EDGE ( 'NONE', *, *, #33, .F. ) ;
#190 = CC_DESIGN_PERSON_AND_ORGANIZATION_ASSIGNMENT ( #152, #468, ( #442 ) ) ;
#191 = AXIS2_PLACEMENT_3D ( 'NONE', #324, #92, #481 ) ;
#192 = EDGE_CURVE ( 'NONE', #199, #503, #257, .T. ) ;
#193 = ORIENTED_EDGE ( 'NONE', *, *, #312, .T. ) ;
#194 = ORIENTED_EDGE ( 'NONE', *, *, #328, .T. ) ;
#195 = APPROVAL_ROLE ( '' ) ;
#196 = ORIENTED_EDGE ( 'NONE', *, *, #95, .F. ) ;
#197 = ORIENTED_EDGE ( 'NONE', *, *, #508, .T. ) ;
#198 = DIRECTION ( 'NONE',  ( 0.000000000000000000, 1.000000000000000000, 0.000000000000000000 ) ) ;
#199 = VERTEX_POINT ( 'NONE', #187 ) ;
#200 = DIRECTION ( 'NONE',  ( 1.000000000000000000, 0.000000000000000000, 0.000000000000000000 ) ) ;
#201 = DIRECTION ( 'NONE',  ( -0.000000000000000000, -1.000000000000000000, -0.000000000000000000 ) ) ;
#202 = CIRCLE ( 'NONE', #168, 1.249999999999999778 ) ;
#203 = VECTOR ( 'NONE', #234, 1000.000000000000000 ) ;
#204 = CARTESIAN_POINT ( 'NONE',  ( -2.425000000000001155, 2.000000000000000000, 2.225000000000000089 ) ) ;
#205 = DIRECTION ( 'NONE',  ( 0.000000000000000000, 1.000000000000000000, 0.000000000000000000 ) ) ;
#206 = LINE ( 'NONE', #476, #393 ) ;
#207 = EDGE_CURVE ( 'NONE', #219, #75, #484, .T. ) ;
#208 = VECTOR ( 'NONE', #478, 1000.000000000000000 ) ;
#209 = AXIS2_PLACEMENT_3D ( 'NONE', #286, #436, #87 ) ;
#210 = DIRECTION ( 'NONE',  ( -1.000000000000000000, 0.000000000000000000, -0.000000000000000000 ) ) ;
#211 = LINE ( 'NONE', #333, #405 ) ;
#212 = CYLINDRICAL_SURFACE ( 'NONE', #458, 2.225000000000000089 ) ;
#213 = PERSON_AND_ORGANIZATION ( #178, #36 ) ;
#214 = DIRECTION ( 'NONE',  ( 0.000000000000000000, 0.000000000000000000, -1.000000000000000000 ) ) ;
#215 = ORIENTED_EDGE ( 'NONE', *, *, #508, .F. ) ;
#216 = CC_DESIGN_APPROVAL ( #32, ( #4 ) ) ;
#217 = CARTESIAN_POINT ( 'NONE',  ( -2.849999999999999201, 2.000000000000000000, 1.249999999999999778 ) ) ;
#218 = DIRECTION ( 'NONE',  ( -0.000000000000000000, 1.000000000000000000, -0.000000000000000000 ) ) ;
#219 = VERTEX_POINT ( 'NONE', #365 ) ;
#220 = DIRECTION ( 'NONE',  ( 0.000000000000000000, 0.000000000000000000, 1.000000000000000000 ) ) ;
#221 = EDGE_CURVE ( 'NONE', #314, #75, #351, .T. ) ;
#222 = ORIENTED_EDGE ( 'NONE', *, *, #310, .F. ) ;
#223 = ADVANCED_FACE ( 'NONE', ( #55 ), #131, .F. ) ;
#224 = LINE ( 'NONE', #274, #268 ) ;
#225 = AXIS2_PLACEMENT_3D ( 'NONE', #473, #395, #159 ) ;
#226 = ORIENTED_EDGE ( 'NONE', *, *, #310, .T. ) ;
#227 = VECTOR ( 'NONE', #316, 1000.000000000000000 ) ;
#228 = ORIENTED_EDGE ( 'NONE', *, *, #271, .T. ) ;
#229 = CARTESIAN_POINT ( 'NONE',  ( -2.849999999999999201, 2.000000000000000000, 1.249999999999999778 ) ) ;
#230 = EDGE_CURVE ( 'NONE', #309, #314, #136, .T. ) ;
#231 = ORIENTED_EDGE ( 'NONE', *, *, #192, .F. ) ;
#232 = ADVANCED_FACE ( 'NONE', ( #492 ), #185, .F. ) ;
#233 = APPROVAL_DATE_TIME ( #150, #461 ) ;
#234 = DIRECTION ( 'NONE',  ( -0.000000000000000000, -1.000000000000000000, -0.000000000000000000 ) ) ;
#235 = EDGE_LOOP ( 'NONE', ( #281, #153, #275, #502 ) ) ;
#236 = AXIS2_PLACEMENT_3D ( 'NONE', #49, #459, #104 ) ;
#237 = ORIENTED_EDGE ( 'NONE', *, *, #404, .F. ) ;
#238 = DIRECTION ( 'NONE',  ( -0.000000000000000000, 0.000000000000000000, 1.000000000000000000 ) ) ;
#239 = CARTESIAN_POINT ( 'NONE',  ( 2.849999999999999201, 0.000000000000000000, -1.249999999999999778 ) ) ;
#240 = EDGE_CURVE ( 'NONE', #151, #116, #47, .T. ) ;
#241 = ADVANCED_FACE ( 'NONE', ( #331 ), #297, .F. ) ;
#242 = DIRECTION ( 'NONE',  ( -1.000000000000000000, -0.000000000000000000, -0.000000000000000000 ) ) ;
#243 = DIRECTION ( 'NONE',  ( 0.000000000000000000, 0.000000000000000000, -1.000000000000000000 ) ) ;
#244 = CC_DESIGN_SECURITY_CLASSIFICATION ( #174, ( #442 ) ) ;
#245 = CARTESIAN_POINT ( 'NONE',  ( 2.425000000000001155, 2.000000000000000000, -2.225000000000000089 ) ) ;
#246 = DIRECTION ( 'NONE',  ( 0.000000000000000000, 1.000000000000000000, 0.000000000000000000 ) ) ;
#247 = DIRECTION ( 'NONE',  ( -0.000000000000000000, 1.000000000000000000, -0.000000000000000000 ) ) ;
#248 = EDGE_CURVE ( 'NONE', #462, #428, #202, .T. ) ;
#249 = CARTESIAN_POINT ( 'NONE',  ( -2.425000000000001155, 0.000000000000000000, -2.225000000000000089 ) ) ;
#250 = PLANE ( 'NONE',  #188 ) ;
#251 = AXIS2_PLACEMENT_3D ( 'NONE', #93, #3, #58 ) ;
#252 = LINE ( 'NONE', #483, #29 ) ;
#253 = AXIS2_PLACEMENT_3D ( 'NONE', #112, #272, #115 ) ;
#254 = FACE_OUTER_BOUND ( 'NONE', #376, .T. ) ;
#255 = DIRECTION ( 'NONE',  ( 0.000000000000000000, 0.000000000000000000, 1.000000000000000000 ) ) ;
#256 = FACE_OUTER_BOUND ( 'NONE', #423, .T. ) ;
#257 = LINE ( 'NONE', #420, #302 ) ;
#258 = DIRECTION ( 'NONE',  ( 0.000000000000000000, 1.000000000000000000, 0.000000000000000000 ) ) ;
#259 = DIRECTION ( 'NONE',  ( 1.000000000000000000, 0.000000000000000000, -0.000000000000000000 ) ) ;
#260 = CLOSED_SHELL ( 'NONE', ( #402, #149, #241, #279, #60, #282, #232, #431, #264, #223, #170, #412, #42, #387 ) ) ;
#261 = PERSON_AND_ORGANIZATION ( #178, #36 ) ;
#262 = CARTESIAN_POINT ( 'NONE',  ( 2.425000000000001155, 2.000000000000000000, 0.000000000000000000 ) ) ;
#263 = ORIENTED_EDGE ( 'NONE', *, *, #84, .F. ) ;
#264 = ADVANCED_FACE ( 'NONE', ( #370 ), #13, .F. ) ;
#265 = DIRECTION ( 'NONE',  ( -0.000000000000000000, -1.000000000000000000, -0.000000000000000000 ) ) ;
#266 = ORIENTED_EDGE ( 'NONE', *, *, #422, .T. ) ;
#267 = DATE_AND_TIME ( #64, #465 ) ;
#268 = VECTOR ( 'NONE', #384, 1000.000000000000000 ) ;
#269 = VERTEX_POINT ( 'NONE', #417 ) ;
#270 = VECTOR ( 'NONE', #135, 1000.000000000000000 ) ;
#271 = EDGE_CURVE ( 'NONE', #357, #63, #94, .T. ) ;
#272 = DIRECTION ( 'NONE',  ( 0.000000000000000000, 1.000000000000000000, 0.000000000000000000 ) ) ;
#273 = ORIENTED_EDGE ( 'NONE', *, *, #501, .T. ) ;
#274 = CARTESIAN_POINT ( 'NONE',  ( 4.068357842954480219, 2.000000000000000000, -1.500000000000000000 ) ) ;
#275 = ORIENTED_EDGE ( 'NONE', *, *, #425, .F. ) ;
#276 = EDGE_LOOP ( 'NONE', ( #53, #496, #472, #148 ) ) ;
#277 = VECTOR ( 'NONE', #247, 1000.000000000000000 ) ;
#278 = AXIS2_PLACEMENT_3D ( 'NONE', #413, #218, #334 ) ;
#279 = ADVANCED_FACE ( 'NONE', ( #254 ), #301, .T. ) ;
#280 = PLANE ( 'NONE',  #19 ) ;
#281 = ORIENTED_EDGE ( 'NONE', *, *, #70, .T. ) ;
#282 = ADVANCED_FACE ( 'NONE', ( #256 ), #212, .T. ) ;
#283 = CARTESIAN_POINT ( 'NONE',  ( 4.068357842954480219, 2.000000000000000000, 1.500000000000000000 ) ) ;
#284 = DIRECTION ( 'NONE',  ( -1.000000000000000000, 0.000000000000000000, -0.000000000000000000 ) ) ;
#285 = CARTESIAN_POINT ( 'NONE',  ( -2.425000000000001155, 2.000000000000000000, 2.225000000000000089 ) ) ;
#286 = CARTESIAN_POINT ( 'NONE',  ( -4.650000000000001243, 0.000000000000000000, 1.500000000000000000 ) ) ;
#287 = CARTESIAN_POINT ( 'NONE',  ( -2.849999999999999201, 0.000000000000000000, 1.249999999999999778 ) ) ;
#288 = ORIENTED_EDGE ( 'NONE', *, *, #138, .F. ) ;
#289 = EDGE_LOOP ( 'NONE', ( #304, #340, #23, #383 ) ) ;
#290 = APPROVAL_DATE_TIME ( #184, #32 ) ;
#291 = DIRECTION ( 'NONE',  ( -0.000000000000000000, -1.000000000000000000, -0.000000000000000000 ) ) ;
#292 = CIRCLE ( 'NONE', #375, 1.249999999999999778 ) ;
#293 = DIRECTION ( 'NONE',  ( -0.000000000000000000, -1.000000000000000000, -0.000000000000000000 ) ) ;
#294 = CIRCLE ( 'NONE', #39, 2.225000000000000089 ) ;
#295 = CARTESIAN_POINT ( 'NONE',  ( 2.849999999999999201, 0.000000000000000000, 0.000000000000000000 ) ) ;
#296 = CYLINDRICAL_SURFACE ( 'NONE', #278, 1.249999999999999778 ) ;
#297 = PLANE ( 'NONE',  #102 ) ;
#298 = ORIENTED_EDGE ( 'NONE', *, *, #404, .T. ) ;
#299 = DATE_TIME_ROLE ( 'creation_date' ) ;
#300 = EDGE_CURVE ( 'NONE', #428, #314, #363, .T. ) ;
#301 = CYLINDRICAL_SURFACE ( 'NONE', #236, 2.225000000000000089 ) ;
#302 = VECTOR ( 'NONE', #62, 1000.000000000000000 ) ;
#303 = PERSON_AND_ORGANIZATION ( #178, #36 ) ;
#304 = ORIENTED_EDGE ( 'NONE', *, *, #300, .F. ) ;
#305 = APPROVAL_PERSON_ORGANIZATION ( #429, #461, #195 ) ;
#306 = EDGE_LOOP ( 'NONE', ( #344, #509, #490, #59 ) ) ;
#307 = CALENDAR_DATE ( 2024, 24, 7 ) ;
#308 = ORIENTED_EDGE ( 'NONE', *, *, #505, .T. ) ;
#309 = VERTEX_POINT ( 'NONE', #229 ) ;
#310 = EDGE_CURVE ( 'NONE', #105, #445, #378, .T. ) ;
#311 = FACE_OUTER_BOUND ( 'NONE', #137, .T. ) ;
#312 = EDGE_CURVE ( 'NONE', #142, #186, #292, .T. ) ;
#313 = AXIS2_PLACEMENT_3D ( 'NONE', #17, #6, #259 ) ;
#314 = VERTEX_POINT ( 'NONE', #374 ) ;
#315 = LINE ( 'NONE', #285, #76 ) ;
#316 = DIRECTION ( 'NONE',  ( -1.000000000000000000, 0.000000000000000000, -0.000000000000000000 ) ) ;
#317 = ORIENTED_EDGE ( 'NONE', *, *, #300, .T. ) ;
#318 = EDGE_CURVE ( 'NONE', #503, #434, #339, .T. ) ;
#319 = PLANE ( 'NONE',  #427 ) ;
#320 = CARTESIAN_POINT ( 'NONE',  ( 4.068357842954480219, 1.000000000000000000, -1.500000000000000000 ) ) ;
#321 = VECTOR ( 'NONE', #182, 1000.000000000000000 ) ;
#322 = CARTESIAN_POINT ( 'NONE',  ( -4.650000000000001243, 1.000000000000000000, -1.500000000000000000 ) ) ;
#323 = DIRECTION ( 'NONE',  ( 0.000000000000000000, 1.000000000000000000, 0.000000000000000000 ) ) ;
#324 = CARTESIAN_POINT ( 'NONE',  ( 0.000000000000000000, 0.000000000000000000, 0.000000000000000000 ) ) ;
#325 = CARTESIAN_POINT ( 'NONE',  ( 2.425000000000001155, 0.000000000000000000, -2.225000000000000089 ) ) ;
#326 = APPLICATION_PROTOCOL_DEFINITION ( 'international standard', 'config_control_design', 1994, #16 ) ;
#327 = DIRECTION ( 'NONE',  ( -0.000000000000000000, -1.000000000000000000, -0.000000000000000000 ) ) ;
#328 = EDGE_CURVE ( 'NONE', #219, #309, #517, .T. ) ;
#329 = AXIS2_PLACEMENT_3D ( 'NONE', #372, #455, #10 ) ;
#330 = AXIS2_PLACEMENT_3D ( 'NONE', #204, #243, #41 ) ;
#331 = FACE_OUTER_BOUND ( 'NONE', #160, .T. ) ;
#332 = ORIENTED_EDGE ( 'NONE', *, *, #448, .T. ) ;
#333 = CARTESIAN_POINT ( 'NONE',  ( -2.425000000000001155, 2.000000000000000000, -2.225000000000000089 ) ) ;
#334 = DIRECTION ( 'NONE',  ( 0.000000000000000000, 0.000000000000000000, 1.000000000000000000 ) ) ;
#335 = EDGE_CURVE ( 'NONE', #101, #151, #224, .T. ) ;
#336 = CARTESIAN_POINT ( 'NONE',  ( -4.650000000000001243, 0.000000000000000000, -1.500000000000000000 ) ) ;
#337 = DIRECTION ( 'NONE',  ( 1.000000000000000000, 0.000000000000000000, 0.000000000000000000 ) ) ;
#338 = VERTEX_POINT ( 'NONE', #21 ) ;
#339 = CIRCLE ( 'NONE', #510, 2.225000000000000089 ) ;
#340 = ORIENTED_EDGE ( 'NONE', *, *, #425, .T. ) ;
#341 = APPROVAL_DATE_TIME ( #26, #377 ) ;
#342 = ORIENTED_EDGE ( 'NONE', *, *, #346, .F. ) ;
#343 = EDGE_LOOP ( 'NONE', ( #288, #193, #14, #194 ) ) ;
#344 = ORIENTED_EDGE ( 'NONE', *, *, #328, .F. ) ;
#345 = EDGE_LOOP ( 'NONE', ( #165, #156, #342, #89 ) ) ;
#346 = EDGE_CURVE ( 'NONE', #338, #385, #28, .T. ) ;
#347 = ORIENTED_EDGE ( 'NONE', *, *, #192, .T. ) ;
#348 = FACE_BOUND ( 'NONE', #235, .T. ) ;
#349 = VECTOR ( 'NONE', #57, 1000.000000000000000 ) ;
#350 = FACE_OUTER_BOUND ( 'NONE', #343, .T. ) ;
#351 = CIRCLE ( 'NONE', #470, 1.249999999999999778 ) ;
#352 = DIRECTION ( 'NONE',  ( 0.000000000000000000, 0.000000000000000000, 1.000000000000000000 ) ) ;
#353 = VERTEX_POINT ( 'NONE', #441 ) ;
#354 = EDGE_CURVE ( 'NONE', #397, #101, #85, .T. ) ;
#355 = LINE ( 'NONE', #167, #27 ) ;
#356 = DIRECTION ( 'NONE',  ( 1.000000000000000000, -0.000000000000000000, -0.000000000000000000 ) ) ;
#357 = VERTEX_POINT ( 'NONE', #249 ) ;
#358 = AXIS2_PLACEMENT_3D ( 'NONE', #35, #323, #88 ) ;
#359 = VECTOR ( 'NONE', #164, 1000.000000000000000 ) ;
#360 = CARTESIAN_POINT ( 'NONE',  ( 4.068357842954480219, 1.000000000000000000, 1.500000000000000000 ) ) ;
#361 = DIRECTION ( 'NONE',  ( 0.000000000000000000, 1.000000000000000000, 0.000000000000000000 ) ) ;
#362 = PRODUCT_RELATED_PRODUCT_CATEGORY ( 'detail', '', ( #408 ) ) ;
#363 = LINE ( 'NONE', #173, #161 ) ;
#364 = APPROVAL_STATUS ( 'not_yet_approved' ) ;
#365 = CARTESIAN_POINT ( 'NONE',  ( -2.849999999999999201, 2.000000000000000000, -1.249999999999999778 ) ) ;
#366 = LOCAL_TIME ( 20, 34, 46.00000000000000000, #1 ) ;
#367 = PERSON_AND_ORGANIZATION_ROLE ( 'creator' ) ;
#368 = CARTESIAN_POINT ( 'NONE',  ( 2.849999999999999201, 2.000000000000000000, 0.000000000000000000 ) ) ;
#369 = COORDINATED_UNIVERSAL_TIME_OFFSET ( 8, 0, .AHEAD. ) ;
#370 = FACE_OUTER_BOUND ( 'NONE', #371, .T. ) ;
#371 = EDGE_LOOP ( 'NONE', ( #504, #11, #317, #414 ) ) ;
#372 = CARTESIAN_POINT ( 'NONE',  ( -2.849999999999999201, 0.000000000000000000, 1.249999999999999778 ) ) ;
#373 = PERSON_AND_ORGANIZATION_ROLE ( 'design_supplier' ) ;
#374 = CARTESIAN_POINT ( 'NONE',  ( 2.849999999999999201, 2.000000000000000000, 1.249999999999999778 ) ) ;
#375 = AXIS2_PLACEMENT_3D ( 'NONE', #106, #265, #155 ) ;
#376 = EDGE_LOOP ( 'NONE', ( #18, #298, #114, #197, #222, #31, #308, #228 ) ) ;
#377 = APPROVAL ( #449, 'UNSPECIFIED' ) ;
#378 = LINE ( 'NONE', #74, #203 ) ;
#379 = ORIENTED_EDGE ( 'NONE', *, *, #117, .T. ) ;
#380 = ADVANCED_BREP_SHAPE_REPRESENTATION ( 'Type C Male Top Cover', ( #113, #191 ), #119 ) ;
#381 = SHAPE_DEFINITION_REPRESENTATION ( #180, #380 ) ;
#382 = CARTESIAN_POINT ( 'NONE',  ( 2.425000000000001155, 0.000000000000000000, 0.000000000000000000 ) ) ;
#383 = ORIENTED_EDGE ( 'NONE', *, *, #230, .T. ) ;
#384 = DIRECTION ( 'NONE',  ( -0.000000000000000000, -1.000000000000000000, -0.000000000000000000 ) ) ;
#385 = VERTEX_POINT ( 'NONE', #515 ) ;
#386 = VECTOR ( 'NONE', #337, 1000.000000000000000 ) ;
#387 = ADVANCED_FACE ( 'NONE', ( #348, #166 ), #124, .F. ) ;
#388 = ORIENTED_EDGE ( 'NONE', *, *, #479, .F. ) ;
#389 = CARTESIAN_POINT ( 'NONE',  ( -4.068357842954480219, 2.000000000000000000, 1.500000000000000000 ) ) ;
#390 = CARTESIAN_POINT ( 'NONE',  ( -2.849999999999999201, 1.000000000000000000, 1.249999999999999778 ) ) ;
#391 = CC_DESIGN_APPROVAL ( #377, ( #442 ) ) ;
#392 = LINE ( 'NONE', #86, #433 ) ;
#393 = VECTOR ( 'NONE', #205, 1000.000000000000000 ) ;
#394 = CC_DESIGN_PERSON_AND_ORGANIZATION_ASSIGNMENT ( #213, #139, ( #408 ) ) ;
#395 = DIRECTION ( 'NONE',  ( 0.000000000000000000, 1.000000000000000000, 0.000000000000000000 ) ) ;
#396 = LINE ( 'NONE', #287, #494 ) ;
#397 = VERTEX_POINT ( 'NONE', #446 ) ;
#398 = FACE_OUTER_BOUND ( 'NONE', #127, .T. ) ;
#399 = CARTESIAN_POINT ( 'NONE',  ( -2.849999999999999201, 1.000000000000000000, 1.249999999999999778 ) ) ;
#400 = ORIENTED_EDGE ( 'NONE', *, *, #354, .F. ) ;
#401 = DIRECTION ( 'NONE',  ( 0.000000000000000000, 1.000000000000000000, 0.000000000000000000 ) ) ;
#402 = ADVANCED_FACE ( 'NONE', ( #311 ), #319, .F. ) ;
#403 = CARTESIAN_POINT ( 'NONE',  ( -2.425000000000001155, 2.000000000000000000, 0.000000000000000000 ) ) ;
#404 = EDGE_CURVE ( 'NONE', #397, #269, #486, .T. ) ;
#405 = VECTOR ( 'NONE', #293, 1000.000000000000000 ) ;
#406 = CARTESIAN_POINT ( 'NONE',  ( -2.425000000000001155, 0.000000000000000000, 0.000000000000000000 ) ) ;
#407 = DIRECTION ( 'NONE',  ( 0.000000000000000000, 1.000000000000000000, 0.000000000000000000 ) ) ;
#408 = PRODUCT ( 'Type C Male Top Cover', 'Type C Male Top Cover', '', ( #103 ) ) ;
#409 =( NAMED_UNIT ( * ) PLANE_ANGLE_UNIT ( ) SI_UNIT ( $, .RADIAN. ) );
#410 = CARTESIAN_POINT ( 'NONE',  ( 2.425000000000001155, 0.000000000000000000, 0.000000000000000000 ) ) ;
#411 = APPLICATION_PROTOCOL_DEFINITION ( 'international standard', 'config_control_design', 1994, #424 ) ;
#412 = ADVANCED_FACE ( 'NONE', ( #477 ), #126, .F. ) ;
#413 = CARTESIAN_POINT ( 'NONE',  ( -2.849999999999999201, 0.000000000000000000, 0.000000000000000000 ) ) ;
#414 = ORIENTED_EDGE ( 'NONE', *, *, #221, .T. ) ;
#415 = CC_DESIGN_PERSON_AND_ORGANIZATION_ASSIGNMENT ( #61, #108, ( #174 ) ) ;
#416 = DIRECTION ( 'NONE',  ( 0.000000000000000000, 1.000000000000000000, 0.000000000000000000 ) ) ;
#417 = CARTESIAN_POINT ( 'NONE',  ( -4.068357842954480219, 1.000000000000000000, 1.500000000000000000 ) ) ;
#418 = ORIENTED_EDGE ( 'NONE', *, *, #318, .F. ) ;
#419 = DESIGN_CONTEXT ( 'detailed design', #16, 'design' ) ;
#420 = CARTESIAN_POINT ( 'NONE',  ( 2.425000000000001155, 2.000000000000000000, 2.225000000000000089 ) ) ;
#421 = DIRECTION ( 'NONE',  ( 0.000000000000000000, 1.000000000000000000, 0.000000000000000000 ) ) ;
#422 = EDGE_CURVE ( 'NONE', #434, #498, #471, .T. ) ;
#423 = EDGE_LOOP ( 'NONE', ( #432, #266, #467, #474, #107, #196, #469, #347 ) ) ;
#424 = APPLICATION_CONTEXT ( 'configuration controlled 3d designs of mechanical parts and assemblies' ) ;
#425 = EDGE_CURVE ( 'NONE', #428, #142, #34, .T. ) ;
#426 = CIRCLE ( 'NONE', #506, 2.225000000000000089 ) ;
#427 = AXIS2_PLACEMENT_3D ( 'NONE', #90, #401, #37 ) ;
#428 = VERTEX_POINT ( 'NONE', #120 ) ;
#429 = PERSON_AND_ORGANIZATION ( #178, #36 ) ;
#430 = ORIENTED_EDGE ( 'NONE', *, *, #141, .F. ) ;
#431 = ADVANCED_FACE ( 'NONE', ( #398 ), #280, .T. ) ;
#432 = ORIENTED_EDGE ( 'NONE', *, *, #318, .T. ) ;
#433 = VECTOR ( 'NONE', #480, 1000.000000000000000 ) ;
#434 = VERTEX_POINT ( 'NONE', #507 ) ;
#435 = AXIS2_PLACEMENT_3D ( 'NONE', #295, #52, #450 ) ;
#436 = DIRECTION ( 'NONE',  ( 0.000000000000000000, -0.000000000000000000, 1.000000000000000000 ) ) ;
#437 = CARTESIAN_POINT ( 'NONE',  ( 2.849999999999999201, 2.000000000000000000, -1.249999999999999778 ) ) ;
#438 = LINE ( 'NONE', #511, #359 ) ;
#439 = CARTESIAN_POINT ( 'NONE',  ( -2.425000000000001155, 2.000000000000000000, 2.225000000000000089 ) ) ;
#440 = CC_DESIGN_DATE_AND_TIME_ASSIGNMENT ( #12, #299, ( #4 ) ) ;
#441 = CARTESIAN_POINT ( 'NONE',  ( -4.068357842954480219, 0.000000000000000000, 1.500000000000000000 ) ) ;
#442 = PRODUCT_DEFINITION_FORMATION_WITH_SPECIFIED_SOURCE ( 'ANY', '', #408, .NOT_KNOWN. ) ;
#443 = DIRECTION ( 'NONE',  ( -0.000000000000000000, -1.000000000000000000, -0.000000000000000000 ) ) ;
#444 = LINE ( 'NONE', #128, #277 ) ;
#445 = VERTEX_POINT ( 'NONE', #122 ) ;
#446 = CARTESIAN_POINT ( 'NONE',  ( -4.068357842954480219, 1.000000000000000000, -1.500000000000000000 ) ) ;
#447 = DIRECTION ( 'NONE',  ( 0.000000000000000000, 0.000000000000000000, -1.000000000000000000 ) ) ;
#448 = EDGE_CURVE ( 'NONE', #445, #503, #438, .T. ) ;
#449 = APPROVAL_STATUS ( 'not_yet_approved' ) ;
#450 = DIRECTION ( 'NONE',  ( 0.000000000000000000, 0.000000000000000000, 1.000000000000000000 ) ) ;
#451 = VECTOR ( 'NONE', #246, 1000.000000000000000 ) ;
#452 = LOCAL_TIME ( 20, 34, 46.00000000000000000, #369 ) ;
#453 = CARTESIAN_POINT ( 'NONE',  ( -2.849999999999999201, 2.000000000000000000, -1.249999999999999778 ) ) ;
#454 = CARTESIAN_POINT ( 'NONE',  ( -2.425000000000001155, 0.000000000000000000, -2.225000000000000089 ) ) ;
#455 = DIRECTION ( 'NONE',  ( -0.000000000000000000, 0.000000000000000000, 1.000000000000000000 ) ) ;
#456 = CARTESIAN_POINT ( 'NONE',  ( -2.425000000000001155, 0.000000000000000000, 0.000000000000000000 ) ) ;
#457 = CARTESIAN_POINT ( 'NONE',  ( -2.425000000000001155, 2.000000000000000000, 0.000000000000000000 ) ) ;
#458 = AXIS2_PLACEMENT_3D ( 'NONE', #262, #327, #214 ) ;
#459 = DIRECTION ( 'NONE',  ( -0.000000000000000000, -1.000000000000000000, -0.000000000000000000 ) ) ;
#460 = ORIENTED_EDGE ( 'NONE', *, *, #240, .F. ) ;
#461 = APPROVAL ( #71, 'UNSPECIFIED' ) ;
#462 = VERTEX_POINT ( 'NONE', #475 ) ;
#463 = EDGE_CURVE ( 'NONE', #116, #357, #179, .T. ) ;
#464 = ORIENTED_EDGE ( 'NONE', *, *, #117, .F. ) ;
#465 = LOCAL_TIME ( 20, 34, 46.00000000000000000, #73 ) ;
#466 = ORIENTED_EDGE ( 'NONE', *, *, #129, .T. ) ;
#467 = ORIENTED_EDGE ( 'NONE', *, *, #84, .T. ) ;
#468 = PERSON_AND_ORGANIZATION_ROLE ( 'creator' ) ;
#469 = ORIENTED_EDGE ( 'NONE', *, *, #177, .F. ) ;
#470 = AXIS2_PLACEMENT_3D ( 'NONE', #368, #144, #220 ) ;
#471 = LINE ( 'NONE', #283, #451 ) ;
#472 = ORIENTED_EDGE ( 'NONE', *, *, #177, .T. ) ;
#473 = CARTESIAN_POINT ( 'NONE',  ( -4.650000000000001243, 1.000000000000000000, 1.500000000000000000 ) ) ;
#474 = ORIENTED_EDGE ( 'NONE', *, *, #335, .T. ) ;
#475 = CARTESIAN_POINT ( 'NONE',  ( 2.849999999999999201, 1.000000000000000000, -1.249999999999999778 ) ) ;
#476 = CARTESIAN_POINT ( 'NONE',  ( -4.068357842954480219, 2.000000000000000000, -1.500000000000000000 ) ) ;
#477 = FACE_OUTER_BOUND ( 'NONE', #66, .T. ) ;
#478 = DIRECTION ( 'NONE',  ( -0.000000000000000000, 1.000000000000000000, -0.000000000000000000 ) ) ;
#479 = EDGE_CURVE ( 'NONE', #269, #498, #252, .T. ) ;
#480 = DIRECTION ( 'NONE',  ( 1.000000000000000000, -0.000000000000000000, -0.000000000000000000 ) ) ;
#481 = DIRECTION ( 'NONE',  ( 1.000000000000000000, 0.000000000000000000, 0.000000000000000000 ) ) ;
#482 = DIRECTION ( 'NONE',  ( 0.000000000000000000, 1.000000000000000000, 0.000000000000000000 ) ) ;
#483 = CARTESIAN_POINT ( 'NONE',  ( -4.650000000000001243, 1.000000000000000000, 1.500000000000000000 ) ) ;
#484 = LINE ( 'NONE', #453, #386 ) ;
#485 = AXIS2_PLACEMENT_3D ( 'NONE', #457, #416, #48 ) ;
#486 = CIRCLE ( 'NONE', #77, 2.225000000000000089 ) ;
#487 = PERSON_AND_ORGANIZATION ( #178, #36 ) ;
#488 = CC_DESIGN_PERSON_AND_ORGANIZATION_ASSIGNMENT ( #303, #373, ( #442 ) ) ;
#489 = DIRECTION ( 'NONE',  ( 0.000000000000000000, 0.000000000000000000, 1.000000000000000000 ) ) ;
#490 = ORIENTED_EDGE ( 'NONE', *, *, #221, .F. ) ;
#491 =( LENGTH_UNIT ( ) NAMED_UNIT ( * ) SI_UNIT ( .MILLI., .METRE. ) );
#492 = FACE_OUTER_BOUND ( 'NONE', #345, .T. ) ;
#493 = CARTESIAN_POINT ( 'NONE',  ( 2.425000000000001155, 2.000000000000000000, 0.000000000000000000 ) ) ;
#494 = VECTOR ( 'NONE', #121, 1000.000000000000000 ) ;
#495 = VECTOR ( 'NONE', #201, 1000.000000000000000 ) ;
#496 = ORIENTED_EDGE ( 'NONE', *, *, #33, .T. ) ;
#497 = CALENDAR_DATE ( 2024, 24, 7 ) ;
#498 = VERTEX_POINT ( 'NONE', #360 ) ;
#499 = DIRECTION ( 'NONE',  ( -0.000000000000000000, 1.000000000000000000, -0.000000000000000000 ) ) ;
#500 = ORIENTED_EDGE ( 'NONE', *, *, #479, .T. ) ;
#501 = EDGE_CURVE ( 'NONE', #63, #151, #132, .T. ) ;
#502 = ORIENTED_EDGE ( 'NONE', *, *, #248, .F. ) ;
#503 = VERTEX_POINT ( 'NONE', #54 ) ;
#504 = ORIENTED_EDGE ( 'NONE', *, *, #129, .F. ) ;
#505 = EDGE_CURVE ( 'NONE', #385, #357, #211, .T. ) ;
#506 = AXIS2_PLACEMENT_3D ( 'NONE', #493, #175, #489 ) ;
#507 = CARTESIAN_POINT ( 'NONE',  ( 4.068357842954480219, 0.000000000000000000, 1.500000000000000000 ) ) ;
#508 = EDGE_CURVE ( 'NONE', #353, #445, #294, .T. ) ;
#509 = ORIENTED_EDGE ( 'NONE', *, *, #207, .T. ) ;
#510 = AXIS2_PLACEMENT_3D ( 'NONE', #382, #421, #65 ) ;
#511 = CARTESIAN_POINT ( 'NONE',  ( -2.425000000000001155, 0.000000000000000000, 2.225000000000000089 ) ) ;
#512 = LINE ( 'NONE', #245, #111 ) ;
#513 = CARTESIAN_POINT ( 'NONE',  ( -4.068357842954480219, 0.000000000000000000, -1.500000000000000000 ) ) ;
#514 = EDGE_CURVE ( 'NONE', #385, #105, #20, .T. ) ;
#515 = CARTESIAN_POINT ( 'NONE',  ( -2.425000000000001155, 2.000000000000000000, -2.225000000000000089 ) ) ;
#516 = PLANE ( 'NONE',  #56 ) ;
#517 = CIRCLE ( 'NONE', #253, 1.249999999999999778 ) ;
ENDSEC;
END-ISO-10303-21;
